<svg xmlns="http://www.w3.org/2000/svg" width="316" height="316" viewBox="0 0 316 316">
  <g id="Group_63" data-name="Group 63" transform="translate(-199 -2518)">
    <path id="Path_23" data-name="Path 23" d="M158,0A158,158,0,1,1,0,158,158,158,0,0,1,158,0Z" transform="translate(199 2518)" fill="#985832"/>
    <g id="icon_1" data-name="icon 1" transform="translate(221.936 2578.665)">
      <path id="Path_20" data-name="Path 20" d="M252.523,480.922l-12.1,6.049s-25.706-21.17-22.682-51.413c0,0,34.779-13.609,42.34-24.194s37.8-21.17,68.046-10.585,25.706,15.121,81.656,22.682c0,0,9.073,1.512,9.073,7.561s-4.536,13.609-18.146,13.609-43.852-15.121-66.534-4.536c0,0-4.536,1.512-4.536,4.536s4.536,4.536,12.1,0,51.413,7.561,63.51,6.049S437,437.07,423.395,424.973c0,0,22.833-19.355,33.343-28.579s16.558-9.224,19.582-4.688c0,0,9.073-1.512,10.585,3.024s0,7.561-4.536,15.121-13.216,18.206-20.217,28-11.538,11.311-16.074,14.335-30.243,15.121-45.364,24.194-28.731,7.561-28.731,7.561-13.609,0-24.194-4.536-37.8-13.609-46.876-13.609-15.121,0-28.731,6.049S252.523,480.922,252.523,480.922Z" transform="translate(-217.496 -319.802)" fill="#f4e1c8"/>
      <path id="Union_1" data-name="Union 1" d="M-14233.048-2406.705l-.022.015v-.031c-1.681-1.111-48.316-32.211-46.831-58.943,1.512-27.2,34.739-30.27,46.854-3.091,12.115-27.179,45.343-24.11,46.851,3.091,1.489,26.732-45.146,57.832-46.827,58.943v.031Z" transform="translate(14408.681 2487.665)" fill="#f4e1c8"/>
    </g>
  </g>
</svg>
