<svg xmlns="http://www.w3.org/2000/svg" width="49.087" height="49.087" viewBox="0 0 49.087 49.087">
  <g id="_1161953_instagram_icon" data-name="1161953_instagram_icon" transform="translate(0)">
    <path id="Path_13" data-name="Path 13" d="M28.068,16.7A12.668,12.668,0,1,0,40.735,29.368,12.692,12.692,0,0,0,28.068,16.7Zm0,20.783a8.115,8.115,0,1,1,8.115-8.115A8.152,8.152,0,0,1,28.068,37.483Z" transform="translate(-3.524 -4.923)" fill="#fff3e4"/>
    <ellipse id="Ellipse_6" data-name="Ellipse 6" cx="2.87" cy="2.87" rx="2.87" ry="2.87" transform="translate(34.836 8.61)" fill="#fff3e4"/>
    <path id="Path_14" data-name="Path 14" d="M48.528,8.858A14.1,14.1,0,0,0,38.137,4.8H17.75C9.14,4.8,3.4,10.54,3.4,19.15V39.438A14.24,14.24,0,0,0,7.557,50.027a14.443,14.443,0,0,0,10.292,3.86H38.038a14.613,14.613,0,0,0,10.391-3.86,14.168,14.168,0,0,0,4.058-10.49V19.15A14.187,14.187,0,0,0,48.528,8.858Zm-.4,30.679a9.67,9.67,0,0,1-2.87,7.224,10.23,10.23,0,0,1-7.224,2.573H17.849a10.23,10.23,0,0,1-7.225-2.573,9.948,9.948,0,0,1-2.672-7.323V19.15a9.866,9.866,0,0,1,2.672-7.224,10.064,10.064,0,0,1,7.225-2.573H38.236a9.866,9.866,0,0,1,7.224,2.672,10.212,10.212,0,0,1,2.672,7.125V39.537Z" transform="translate(-3.4 -4.8)" fill="#fff3e4"/>
  </g>
</svg>
