<svg xmlns="http://www.w3.org/2000/svg" width="117.051" height="117.053" viewBox="0 0 117.051 117.053">
  <g id="_3108303701579177869" data-name="3108303701579177869" transform="translate(2.5 2.5)">
    <ellipse id="Ellipse_3" data-name="Ellipse 3" cx="56.025" cy="56.026" rx="56.025" ry="56.026" fill="none" stroke="#803d0c" stroke-miterlimit="10" stroke-width="5"/>
    <path id="Path_7" data-name="Path 7" d="M154.955,118.4c-13.674-.066-23.134,13.841-18.056,26.121,3.651,8.829,9.592,16.1,15.931,23.068a2.743,2.743,0,0,0,4.248-.066c1.129-1.162,2.157-2.39,3.186-3.618,4.813-5.808,9.227-11.816,12.413-18.72C178.454,132.406,168.464,118.333,154.955,118.4Zm-.166,27.781a8.763,8.763,0,1,1,8.928-8.762A8.784,8.784,0,0,1,154.789,146.18Z" transform="translate(-98.897 -87.466)" fill="#4b97aa"/>
  </g>
</svg>
