<svg id="_3108303701579177869" data-name="3108303701579177869" xmlns="http://www.w3.org/2000/svg" width="50.513" height="50.513" viewBox="0 0 50.513 50.513">
  <ellipse id="Ellipse_3" data-name="Ellipse 3" cx="25.256" cy="25.256" rx="25.256" ry="25.256" fill="none"/>
  <path id="Path_7" data-name="Path 7" d="M144.275,118.4a8.647,8.647,0,0,0-8.139,11.775,36.41,36.41,0,0,0,7.182,10.4,1.236,1.236,0,0,0,1.915-.03c.509-.524.973-1.077,1.436-1.631a38.83,38.83,0,0,0,5.6-8.439A8.649,8.649,0,0,0,144.275,118.4Zm-.075,12.523a3.95,3.95,0,1,1,4.025-3.95A3.96,3.96,0,0,1,144.2,130.923Z" transform="translate(-119.004 -104.455)" fill="#4b97aa"/>
</svg>
