<svg xmlns="http://www.w3.org/2000/svg" width="359.195" height="185.772" viewBox="0 0 359.195 185.772">
  <g id="logo" transform="translate(-2.009 -2.731)">
    <path id="Path_814" data-name="Path 814" d="M183.3,40.149a1.011,1.011,0,0,0,1.848-.8c-5.859-17.159-19.67-42.2-49.629-35.5C90.911,13.817,98.235,65.19,98.235,65.19S66.289,22.362,24.3,51.589,3.964,148.371,53.384,160.368c45.2,10.986,64.068,3.313,100.409,27.727a2.268,2.268,0,0,0,3-3.348c-10.463-12.311-32.784-31.11-73.9-35.748-59.011-6.661-72.857-50.676-49.246-75.473,16.148-16.985,46.839-15.764,75.438,18.24,0,0-4.15-62.394,32.854-71.427C164.4,14.829,176.917,28.57,183.3,40.149Z" transform="translate(0 0)" fill="#f4e1c8"/>
    <path id="Path_815" data-name="Path 815" d="M71.095,16.89c-2.232,8.3-17.4,13.114-19.635,21.379-2.232,8.231,8.51,19.949,6.313,28.18-2.232,8.266-17.4,13.079-19.635,21.344-2.162,8.091,8.58,19.67,6.417,27.762" transform="translate(89.151 35.222)" fill="none" stroke="#74bcce" stroke-miterlimit="10" stroke-width="6"/>
    <path id="Path_816" data-name="Path 816" d="M75.925,18.31c-2.232,8.3-17.4,13.114-19.635,21.379C54.057,47.92,64.8,59.639,62.6,67.869,60.37,76.135,45.2,80.948,42.966,89.214c-2.162,8.091,8.58,19.67,6.417,27.762" transform="translate(101.167 38.754)" fill="none" stroke="#74bcce" stroke-miterlimit="10" stroke-width="6"/>
    <g id="Group_115" data-name="Group 115" transform="translate(175.243 76.456)">
      <path id="Path_817" data-name="Path 817" d="M78.814,50.631a9.513,9.513,0,0,1-1.43-.1,9.447,9.447,0,0,1-7.743-6.382,15.1,15.1,0,0,1-5.929,1.151,12.588,12.588,0,0,1-8.649-2.964,9.8,9.8,0,0,1-3.383-7.638,9.9,9.9,0,0,1,1.535-5.545A10.056,10.056,0,0,1,57.5,25.38a14.759,14.759,0,0,1,6.348-1.36,21.5,21.5,0,0,1,4.534.453,15.345,15.345,0,0,1,3.557,1.116l.07,5.022h-.244a6.835,6.835,0,0,0-2.72-4.011,8.317,8.317,0,0,0-4.813-1.36,6.959,6.959,0,0,0-5.615,2.651,10.36,10.36,0,0,0-2.162,6.836,10.29,10.29,0,0,0,2.162,6.766,6.79,6.79,0,0,0,5.51,2.581,6,6,0,0,0,3.139-.8,3.786,3.786,0,0,0,1.779-2.127V36.715a1.259,1.259,0,0,0-.384-.977,1.5,1.5,0,0,0-1.081-.349H67.13v-.279l8.231-.035v.279h-.453a1.533,1.533,0,0,0-1.116.349,1.173,1.173,0,0,0-.349.977v4.639a10.15,10.15,0,0,0,.732,3.592,7.316,7.316,0,0,0,5.162,4.429,9.4,9.4,0,0,0,1.988.244,9.059,9.059,0,0,0,2.127-.244l.07.279A12.733,12.733,0,0,1,78.814,50.631Z" transform="translate(-51.68 -23.497)" fill="#ebb949"/>
      <path id="Path_818" data-name="Path 818" d="M80.721,44.617H81V44.9l-9.312.035v-.279h.279a1.181,1.181,0,0,0,.942-.384,1.291,1.291,0,0,0,.314-.732,1.663,1.663,0,0,0-.14-.7l-1.43-3.592-6.836.035-1.5,3.592a1.821,1.821,0,0,0-.14.732,1.292,1.292,0,0,0,.314.732,1.11,1.11,0,0,0,.977.384h.244V45l-6.243.035v-.279h.279a2.577,2.577,0,0,0,1.36-.419,3.452,3.452,0,0,0,1.116-1.221l6.7-15.311a16.226,16.226,0,0,0,1.465-3.836h.279l8.754,19.043a3.034,3.034,0,0,0,1.116,1.256A2.076,2.076,0,0,0,80.721,44.617ZM65.236,37.99H71.1l-2.86-7.185Z" transform="translate(-34.789 -23.621)" fill="#ebb949"/>
      <path id="Path_819" data-name="Path 819" d="M65.429,44.293a1.643,1.643,0,0,0,1.29-.558,1.825,1.825,0,0,0,.558-1.29l-.035-16.218a1.91,1.91,0,0,0-.558-1.29,1.791,1.791,0,0,0-1.29-.523H65.01v-.279L73.9,24.1l-.035.279H73.52a1.767,1.767,0,0,0-1.325.558,1.693,1.693,0,0,0-.558,1.29l.035,17.089h3.836A5.308,5.308,0,0,0,79.1,42.061a7.156,7.156,0,0,0,2.127-3.488h.279l-1.325,5.964-15.136.035v-.279Z" transform="translate(-18.52 -23.298)" fill="#ebb949"/>
      <path id="Path_820" data-name="Path 820" d="M91.7,24.434h-.279a2.577,2.577,0,0,0-1.36.419,3.452,3.452,0,0,0-1.116,1.221L82.078,41.384a15.554,15.554,0,0,0-1.43,3.836h-.279L71.44,26.143a3.268,3.268,0,0,0-1.116-1.256,2.577,2.577,0,0,0-1.36-.419H68.72V24.19l9.312-.035v.279h-.244a1.181,1.181,0,0,0-.942.384,1.291,1.291,0,0,0-.314.732,2.417,2.417,0,0,0,.1.7l5.022,12.067,5.127-12.1a1.822,1.822,0,0,0,.14-.732,1.292,1.292,0,0,0-.314-.732,1.081,1.081,0,0,0-.942-.384h-.279v-.279l6.243-.035Z" transform="translate(-9.29 -23.422)" fill="#ebb949"/>
      <path id="Path_821" data-name="Path 821" d="M75.863,44.662a1.643,1.643,0,0,0,1.29-.558,1.825,1.825,0,0,0,.558-1.29l-.035-16.287a1.872,1.872,0,0,0-.977-1.535,2.071,2.071,0,0,0-.907-.244H75.41v-.279l11.2-.035a14.4,14.4,0,0,0,1.988-.174,8.581,8.581,0,0,0,1.535-.349v5.127h-.279v-.349a3.114,3.114,0,0,0-.767-2.127,3.2,3.2,0,0,0-2.093-.872H82.071l.035,8.51h3.871a2.471,2.471,0,0,0,1.779-.767,2.534,2.534,0,0,0,.7-1.779v-.279h.279v6.8h-.279V37.93a2.3,2.3,0,0,0-1.186-2.162,3.228,3.228,0,0,0-1.29-.349H82.071l.035,8.231h3.836a5.308,5.308,0,0,0,3.592-1.256,7.156,7.156,0,0,0,2.127-3.488h.279l-1.325,5.964-15.136.035v-.279Z" transform="translate(7.352 -23.771)" fill="#ebb949"/>
      <path id="Path_822" data-name="Path 822" d="M80.78,42.111a6.552,6.552,0,0,1,.907-3.592h.279a1.988,1.988,0,0,0-.035.453A4.878,4.878,0,0,0,83.4,42.494a5.258,5.258,0,0,0,3.976,1.5,4.613,4.613,0,0,0,3.069-.942,2.992,2.992,0,0,0,1.081-2.372c0-1.151-.8-2.162-2.337-3l-5.092-3.348a5.622,5.622,0,0,1-2.2-2.127,5.205,5.205,0,0,1-.663-2.511,5.235,5.235,0,0,1,1.744-4.255,6.525,6.525,0,0,1,4.464-1.5,37.579,37.579,0,0,1,3.976.279h1.848l-.384,4.29H92.6a3.064,3.064,0,0,0-1.116-2.441,4.529,4.529,0,0,0-3-.907,3.831,3.831,0,0,0-3.313,1.43,2.406,2.406,0,0,0-.523,1.535c0,.942.7,1.814,2.058,2.581l5.58,3.627A4.908,4.908,0,0,1,94.94,38.8a5.689,5.689,0,0,1-2.093,4.778,8.755,8.755,0,0,1-5.615,1.674,12.243,12.243,0,0,1-3.662-.488,5.327,5.327,0,0,1-2.476-1.29A2.459,2.459,0,0,1,80.78,42.111Z" transform="translate(20.711 -23.696)" fill="#ebb949"/>
      <path id="Path_823" data-name="Path 823" d="M96.854,25.649l.035,17.159a1.91,1.91,0,0,0,.558,1.29,1.791,1.791,0,0,0,1.29.523h.349l.035.279-8.894.035v-.279h.384a1.712,1.712,0,0,0,1.256-.523,1.936,1.936,0,0,0,.593-1.256l-.035-17.194H88.484a3.031,3.031,0,0,0-2.127.837,2.815,2.815,0,0,0-.767,2.127V29H85.31V23.9a7.5,7.5,0,0,0,1.465.349,13.534,13.534,0,0,0,1.988.174l11.788-.035a12.991,12.991,0,0,0,2.337-.244c.593-.14.977-.244,1.116-.279v5.092h-.279v-.349a2.922,2.922,0,0,0-.8-2.127,2.81,2.81,0,0,0-2.127-.837Z" transform="translate(31.98 -23.87)" fill="#ebb949"/>
      <path id="Path_824" data-name="Path 824" d="M102.763,23.9a12.569,12.569,0,0,1,8.615,2.825,9.946,9.946,0,0,1,3.209,7.777,9.921,9.921,0,0,1-3.174,7.777,12.339,12.339,0,0,1-8.58,2.895,12.569,12.569,0,0,1-8.614-2.825,9.946,9.946,0,0,1-3.209-7.777,10.965,10.965,0,0,1,1.43-5.65,9.527,9.527,0,0,1,4.081-3.7A14.171,14.171,0,0,1,102.763,23.9ZM97.741,41.443a6.427,6.427,0,0,0,10.219-.035,11.277,11.277,0,0,0,1.883-6.906,12.755,12.755,0,0,0-.872-4.987,7.208,7.208,0,0,0-2.441-3.278,5.918,5.918,0,0,0-3.732-1.116,6.078,6.078,0,0,0-5.092,2.546,11.277,11.277,0,0,0-1.883,6.906A11.013,11.013,0,0,0,97.741,41.443Z" transform="translate(46.159 -23.795)" fill="#ebb949"/>
      <path id="Path_825" data-name="Path 825" d="M121.234,24.493a1.712,1.712,0,0,0-1.256.523,1.9,1.9,0,0,0-.558,1.256l.035,15.1a17.809,17.809,0,0,0,.279,3.313l.1.453h-.279l-14.823-14.02.035,11.614a1.786,1.786,0,0,0,1.779,1.779h.558v.279l-8.859.035v-.279h.523a1.787,1.787,0,0,0,1.814-1.814l-.035-15.171a16.107,16.107,0,0,0-.279-3.209l-.07-.453h.279L115.3,37.92l-.035-11.544a1.76,1.76,0,0,0-.558-1.256,1.712,1.712,0,0,0-1.256-.523h-.523v-.279l8.859-.035v.279Z" transform="translate(64.17 -23.795)" fill="#ebb949"/>
    </g>
    <g id="Group_116" data-name="Group 116" transform="translate(165.094 121.202)">
      <path id="Path_826" data-name="Path 826" d="M48.77,54.991a6.552,6.552,0,0,1,.907-3.592h.279a1.989,1.989,0,0,0-.035.453,4.878,4.878,0,0,0,1.465,3.523,5.258,5.258,0,0,0,3.976,1.5,4.613,4.613,0,0,0,3.069-.942,2.992,2.992,0,0,0,1.081-2.372c0-1.151-.8-2.162-2.337-3l-5.092-3.348a5.622,5.622,0,0,1-2.2-2.127,5.684,5.684,0,0,1,1.081-6.766,6.525,6.525,0,0,1,4.464-1.5,37.57,37.57,0,0,1,3.976.279h1.848l-.384,4.29h-.279a3.064,3.064,0,0,0-1.116-2.441,4.529,4.529,0,0,0-3-.907,3.831,3.831,0,0,0-3.313,1.43,2.406,2.406,0,0,0-.523,1.535c0,.942.7,1.814,2.058,2.581l5.58,3.592a4.908,4.908,0,0,1,2.651,4.464,5.689,5.689,0,0,1-2.093,4.778,8.756,8.756,0,0,1-5.615,1.674,12.242,12.242,0,0,1-3.662-.488,5.328,5.328,0,0,1-2.476-1.29A2.27,2.27,0,0,1,48.77,54.991Z" transform="translate(-48.77 -36.402)" fill="#ebb949"/>
      <path id="Path_827" data-name="Path 827" d="M67.764,57.128a1.728,1.728,0,0,0,1.186-.384,2.219,2.219,0,0,0,.7-1.43l-.035-7.464-9.486.035.035,7.429a1.643,1.643,0,0,0,.558,1.29,1.872,1.872,0,0,0,1.325.523h.349l.035.279-8.893.035v-.279h.384a1.643,1.643,0,0,0,1.29-.558,1.825,1.825,0,0,0,.558-1.29L55.732,39.1a1.91,1.91,0,0,0-.558-1.29,1.791,1.791,0,0,0-1.29-.523H53.5V37l8.893-.035-.07.279h-.349a1.872,1.872,0,0,0-1.325.523,1.643,1.643,0,0,0-.558,1.29l.035,7.533,9.486-.035-.035-7.533a1.91,1.91,0,0,0-.558-1.29,1.791,1.791,0,0,0-1.29-.523h-.384v-.279l8.894-.035v.279h-.384a1.767,1.767,0,0,0-1.325.558,1.693,1.693,0,0,0-.558,1.29l.035,16.218a1.643,1.643,0,0,0,.558,1.29,1.872,1.872,0,0,0,1.325.523h.384v.279l-8.893.035v-.279Z" transform="translate(-37.003 -36.202)" fill="#ebb949"/>
      <path id="Path_828" data-name="Path 828" d="M72.243,36.78A12.569,12.569,0,0,1,80.858,39.6a9.946,9.946,0,0,1,3.209,7.777,9.921,9.921,0,0,1-3.174,7.777,12.339,12.339,0,0,1-8.58,2.895A12.569,12.569,0,0,1,63.7,55.23a9.946,9.946,0,0,1-3.209-7.777,10.965,10.965,0,0,1,1.43-5.65A9.527,9.527,0,0,1,66,38.105,14.064,14.064,0,0,1,72.243,36.78ZM67.186,54.323a6.067,6.067,0,0,0,5.127,2.511,5.991,5.991,0,0,0,5.092-2.546,11.277,11.277,0,0,0,1.883-6.906,12.755,12.755,0,0,0-.872-4.987,7.208,7.208,0,0,0-2.441-3.278A5.918,5.918,0,0,0,72.243,38a6.078,6.078,0,0,0-5.092,2.546,11.277,11.277,0,0,0-1.883,6.906A11.474,11.474,0,0,0,67.186,54.323Z" transform="translate(-19.615 -36.501)" fill="#ebb949"/>
      <path id="Path_829" data-name="Path 829" d="M75.712,38.146h-1.36L74.387,55.2a1.834,1.834,0,0,0,.942,1.6,2.1,2.1,0,0,0,.942.244h.384v.279l-8.894.035v-.279h.384a1.814,1.814,0,0,0,1.6-.907,2.072,2.072,0,0,0,.244-.907V39.017a1.91,1.91,0,0,0-.558-1.29,1.791,1.791,0,0,0-1.29-.523H67.76v-.279L77.8,36.89a8.821,8.821,0,0,1,4.813,1.221,4.372,4.372,0,0,1,1.569,1.709A5.3,5.3,0,0,1,84.78,42.3a6.033,6.033,0,0,1-.488,2.546,5.266,5.266,0,0,1-1.6,2.058A4.97,4.97,0,0,1,80,47.946a5.931,5.931,0,0,1,3,2.581c2.127,3.383,3.7,5.371,4.708,6a3.639,3.639,0,0,0,1.918.488v.279h-2.86a11.013,11.013,0,0,1-4.15-.663,5.671,5.671,0,0,1-2.72-2.337c-.349-.558-.8-1.43-1.36-2.546-.558-1.151-.907-1.953-1.081-2.441-.523-1.151-1.186-1.814-1.988-1.953v-.279h.907a3.793,3.793,0,0,0,2.337-.8,4.265,4.265,0,0,0,1.36-2.581,6.222,6.222,0,0,0,.1-.977,4.924,4.924,0,0,0-.977-3.453,3.27,3.27,0,0,0-2.476-1.081A9.148,9.148,0,0,0,75.712,38.146Z" transform="translate(-1.53 -36.227)" fill="#ebb949"/>
      <path id="Path_830" data-name="Path 830" d="M74.333,57.451a1.643,1.643,0,0,0,1.29-.558,1.825,1.825,0,0,0,.558-1.29l-.035-16.287a1.872,1.872,0,0,0-.977-1.535,2.072,2.072,0,0,0-.907-.244H73.88v-.279l11.2-.035a14.4,14.4,0,0,0,1.988-.174A8.583,8.583,0,0,0,88.6,36.7v5.127h-.279v-.349a3.114,3.114,0,0,0-.767-2.127,3.2,3.2,0,0,0-2.093-.872H80.541l.035,8.51h3.871a2.471,2.471,0,0,0,1.779-.767,2.534,2.534,0,0,0,.7-1.779v-.279H87.2l.035,6.766h-.279v-.244a2.3,2.3,0,0,0-1.186-2.162,3.227,3.227,0,0,0-1.29-.349H80.576l.035,8.231h3.836A5.308,5.308,0,0,0,88.04,55.15a7.156,7.156,0,0,0,2.127-3.488h.279l-1.325,5.964-15.136.035v-.279Z" transform="translate(13.695 -36.7)" fill="#ebb949"/>
      <path id="Path_831" data-name="Path 831" d="M79.25,54.9a6.552,6.552,0,0,1,.907-3.592h.279a1.989,1.989,0,0,0-.035.453,4.878,4.878,0,0,0,1.465,3.523,5.258,5.258,0,0,0,3.976,1.5,4.613,4.613,0,0,0,3.069-.942,2.992,2.992,0,0,0,1.081-2.372c0-1.151-.8-2.162-2.337-3l-5.092-3.348A5.621,5.621,0,0,1,80.366,45a5.684,5.684,0,0,1,1.081-6.766,6.525,6.525,0,0,1,4.464-1.5,37.571,37.571,0,0,1,3.976.279h1.848l-.384,4.29h-.279a3.064,3.064,0,0,0-1.116-2.441,4.529,4.529,0,0,0-3-.907,3.831,3.831,0,0,0-3.313,1.43,2.406,2.406,0,0,0-.523,1.535c0,.942.7,1.814,2.058,2.581l5.58,3.592a4.908,4.908,0,0,1,2.651,4.464,5.689,5.689,0,0,1-2.093,4.778A8.755,8.755,0,0,1,85.7,58a12.243,12.243,0,0,1-3.662-.488,5.328,5.328,0,0,1-2.476-1.29A2.27,2.27,0,0,1,79.25,54.9Z" transform="translate(27.053 -36.625)" fill="#ebb949"/>
    </g>
  </g>
</svg>
