<svg xmlns="http://www.w3.org/2000/svg" width="236.599" height="58.588" viewBox="0 0 236.599 58.588">
  <g id="logo" transform="translate(-2.009 -2.731)">
    <path id="Path_814" data-name="Path 814" d="M59.184,14.532a.319.319,0,0,0,.583-.253C57.919,8.867,53.563.97,44.115,3.082,30.047,6.228,32.357,22.429,32.357,22.429S22.281,8.922,9.038,18.14,2.626,48.662,18.212,52.446c14.255,3.465,20.205,1.045,31.666,8.744a.715.715,0,0,0,.946-1.056c-3.3-3.883-10.339-9.811-23.307-11.274-18.611-2.1-22.977-15.982-15.531-23.8,5.093-5.357,14.772-4.972,23.791,5.753,0,0-1.309-19.677,10.361-22.526C53.222,6.547,57.171,10.88,59.184,14.532Z" transform="translate(0 0)" fill="#f4e1c8"/>
    <path id="Path_815" data-name="Path 815" d="M48.332,16.89c-.7,2.618-5.489,4.136-6.193,6.742s2.684,6.292,1.991,8.887-5.489,4.125-6.193,6.731c-.682,2.552,2.706,6.2,2.024,8.755" transform="translate(3.581 1.415)" fill="none" stroke="#74bcce" stroke-miterlimit="10" stroke-width="2"/>
    <path id="Path_816" data-name="Path 816" d="M53.162,18.31c-.7,2.618-5.489,4.136-6.193,6.742s2.684,6.292,1.991,8.887-5.489,4.125-6.193,6.731c-.682,2.552,2.706,6.2,2.024,8.755" transform="translate(4.063 1.557)" fill="none" stroke="#74bcce" stroke-miterlimit="10" stroke-width="2"/>
    <g id="Group_115" data-name="Group 115" transform="translate(58.377 30.161)">
      <path id="Path_817" data-name="Path 817" d="M66.711,38.761a5.27,5.27,0,0,1-.792-.058,5.233,5.233,0,0,1-4.289-3.536,8.366,8.366,0,0,1-3.284.638,6.973,6.973,0,0,1-4.791-1.642,5.427,5.427,0,0,1-1.874-4.231,5.484,5.484,0,0,1,.85-3.072,5.57,5.57,0,0,1,2.376-2.087,8.176,8.176,0,0,1,3.516-.753,11.911,11.911,0,0,1,2.512.251,8.5,8.5,0,0,1,1.971.618l.039,2.782h-.135A3.786,3.786,0,0,0,61.3,25.45a4.607,4.607,0,0,0-2.666-.753,3.855,3.855,0,0,0-3.111,1.468,5.739,5.739,0,0,0-1.2,3.787,5.7,5.7,0,0,0,1.2,3.748,3.761,3.761,0,0,0,3.053,1.43,3.321,3.321,0,0,0,1.739-.444,2.1,2.1,0,0,0,.985-1.179V31.053a.7.7,0,0,0-.213-.541.829.829,0,0,0-.6-.193h-.251v-.155l4.56-.019V30.3h-.251a.849.849,0,0,0-.618.193.65.65,0,0,0-.193.541V33.6a5.623,5.623,0,0,0,.406,1.99A4.053,4.053,0,0,0,67,38.046a5.2,5.2,0,0,0,1.1.135,5.018,5.018,0,0,0,1.179-.135l.039.155A7.053,7.053,0,0,1,66.711,38.761Z" transform="translate(-51.68 -23.73)" fill="#ebb949"/>
      <path id="Path_818" data-name="Path 818" d="M70.8,35.408h.155v.155l-5.158.019v-.155h.155a.654.654,0,0,0,.522-.213.715.715,0,0,0,.174-.406.921.921,0,0,0-.077-.386l-.792-1.99-3.787.019-.831,1.99a1.009,1.009,0,0,0-.077.406.715.715,0,0,0,.174.406.615.615,0,0,0,.541.213h.135v.155l-3.458.019v-.155h.155a1.428,1.428,0,0,0,.753-.232A1.912,1.912,0,0,0,60,34.577L63.706,26.1a8.99,8.99,0,0,0,.811-2.125h.155l4.849,10.549a1.681,1.681,0,0,0,.618.7A1.15,1.15,0,0,0,70.8,35.408Zm-8.578-3.671h3.246l-1.584-3.98Z" transform="translate(-45.352 -23.777)" fill="#ebb949"/>
      <path id="Path_819" data-name="Path 819" d="M65.242,35.286a.91.91,0,0,0,.715-.309,1.011,1.011,0,0,0,.309-.715l-.019-8.984a1.058,1.058,0,0,0-.309-.715.992.992,0,0,0-.715-.29H65.01v-.155l4.927-.019-.019.155h-.193a.979.979,0,0,0-.734.309.938.938,0,0,0-.309.715l.019,9.467h2.125a2.941,2.941,0,0,0,1.99-.7,3.964,3.964,0,0,0,1.179-1.932h.155l-.734,3.3-8.385.019v-.155Z" transform="translate(-39.256 -23.656)" fill="#ebb949"/>
      <path id="Path_820" data-name="Path 820" d="M81.452,24.263H81.3a1.428,1.428,0,0,0-.753.232,1.912,1.912,0,0,0-.618.676L76.12,33.652a8.616,8.616,0,0,0-.792,2.125h-.155L70.227,25.209a1.81,1.81,0,0,0-.618-.7,1.428,1.428,0,0,0-.754-.232H68.72v-.155l5.158-.019v.155h-.135a.654.654,0,0,0-.522.213.715.715,0,0,0-.174.406,1.339,1.339,0,0,0,.058.386l2.782,6.685,2.84-6.7a1.009,1.009,0,0,0,.077-.406.716.716,0,0,0-.174-.406.6.6,0,0,0-.522-.213h-.155v-.155l3.458-.019Z" transform="translate(-35.798 -23.702)" fill="#ebb949"/>
      <path id="Path_821" data-name="Path 821" d="M75.661,35.406a.91.91,0,0,0,.715-.309,1.011,1.011,0,0,0,.309-.715l-.019-9.023a1.037,1.037,0,0,0-.541-.85,1.147,1.147,0,0,0-.5-.135H75.41v-.155l6.2-.019a7.975,7.975,0,0,0,1.1-.1,4.754,4.754,0,0,0,.85-.193v2.84h-.155v-.193a1.725,1.725,0,0,0-.425-1.179,1.771,1.771,0,0,0-1.159-.483H79.1l.019,4.714h2.145a1.369,1.369,0,0,0,.985-.425,1.4,1.4,0,0,0,.386-.985v-.155h.155v3.767h-.155v-.135a1.275,1.275,0,0,0-.657-1.2,1.788,1.788,0,0,0-.715-.193H79.1l.019,4.56h2.125a2.941,2.941,0,0,0,1.99-.7,3.964,3.964,0,0,0,1.179-1.932h.155l-.734,3.3-8.385.019v-.155Z" transform="translate(-29.563 -23.833)" fill="#ebb949"/>
      <path id="Path_822" data-name="Path 822" d="M80.78,34.006a3.629,3.629,0,0,1,.5-1.99h.155a1.1,1.1,0,0,0-.019.251,2.7,2.7,0,0,0,.811,1.951,2.913,2.913,0,0,0,2.2.831,2.555,2.555,0,0,0,1.7-.522,1.657,1.657,0,0,0,.6-1.314c0-.638-.444-1.2-1.294-1.662L82.615,29.7A3.114,3.114,0,0,1,81.4,28.519a3.149,3.149,0,0,1,.6-3.748,3.615,3.615,0,0,1,2.473-.831,20.817,20.817,0,0,1,2.2.155H87.7l-.212,2.376H87.33a1.7,1.7,0,0,0-.618-1.352,2.509,2.509,0,0,0-1.662-.5,2.122,2.122,0,0,0-1.835.792,1.333,1.333,0,0,0-.29.85c0,.522.386,1,1.14,1.43L87.156,29.7a2.719,2.719,0,0,1,1.468,2.473,3.152,3.152,0,0,1-1.159,2.647,4.85,4.85,0,0,1-3.111.927,6.782,6.782,0,0,1-2.029-.27,2.951,2.951,0,0,1-1.372-.715A1.362,1.362,0,0,1,80.78,34.006Z" transform="translate(-24.558 -23.805)" fill="#ebb949"/>
      <path id="Path_823" data-name="Path 823" d="M91.7,24.855l.019,9.506a1.058,1.058,0,0,0,.309.715.992.992,0,0,0,.715.29h.193l.019.155-4.927.019v-.155h.213a.949.949,0,0,0,.7-.29,1.072,1.072,0,0,0,.328-.7l-.019-9.525H87.068a1.679,1.679,0,0,0-1.179.464,1.56,1.56,0,0,0-.425,1.179v.193H85.31V23.889a4.153,4.153,0,0,0,.811.193,7.5,7.5,0,0,0,1.1.1l6.53-.019a7.2,7.2,0,0,0,1.294-.135c.328-.077.541-.135.618-.155v2.821h-.155V26.5a1.619,1.619,0,0,0-.444-1.179,1.557,1.557,0,0,0-1.179-.464Z" transform="translate(-20.336 -23.87)" fill="#ebb949"/>
      <path id="Path_824" data-name="Path 824" d="M97.521,23.9a6.963,6.963,0,0,1,4.772,1.565,5.51,5.51,0,0,1,1.777,4.308,5.5,5.5,0,0,1-1.758,4.308,6.835,6.835,0,0,1-4.753,1.6,6.962,6.962,0,0,1-4.772-1.565,5.509,5.509,0,0,1-1.777-4.308,6.074,6.074,0,0,1,.792-3.13,5.278,5.278,0,0,1,2.26-2.048A7.85,7.85,0,0,1,97.521,23.9Zm-2.782,9.718A3.56,3.56,0,0,0,100.4,33.6a6.247,6.247,0,0,0,1.043-3.825,7.065,7.065,0,0,0-.483-2.763,3.993,3.993,0,0,0-1.352-1.816,3.278,3.278,0,0,0-2.067-.618,3.367,3.367,0,0,0-2.821,1.41,6.247,6.247,0,0,0-1.043,3.825A6.1,6.1,0,0,0,94.739,33.618Z" transform="translate(-15.024 -23.842)" fill="#ebb949"/>
      <path id="Path_825" data-name="Path 825" d="M110.982,24.228a.949.949,0,0,0-.7.29,1.051,1.051,0,0,0-.309.7L110,33.579a9.866,9.866,0,0,0,.155,1.835l.058.251h-.155L101.844,27.9l.019,6.434a.989.989,0,0,0,.985.985h.309v.155l-4.907.019v-.155h.29a.99.99,0,0,0,1-1l-.019-8.4a8.922,8.922,0,0,0-.155-1.777l-.039-.251h.155l8.211,7.767-.019-6.395a.975.975,0,0,0-.309-.7.948.948,0,0,0-.7-.29h-.29v-.155l4.907-.019v.155Z" transform="translate(-8.276 -23.842)" fill="#ebb949"/>
    </g>
    <g id="Group_116" data-name="Group 116" transform="translate(170.285 30.161)">
      <path id="Path_826" data-name="Path 826" d="M48.77,47.126a3.716,3.716,0,0,1,.514-2.037h.158a1.128,1.128,0,0,0-.02.257,2.767,2.767,0,0,0,.831,2,2.982,2.982,0,0,0,2.255.851,2.616,2.616,0,0,0,1.741-.534,1.7,1.7,0,0,0,.613-1.345c0-.653-.455-1.226-1.325-1.7l-2.888-1.9A3.188,3.188,0,0,1,49.4,41.508a3.224,3.224,0,0,1,.613-3.837,3.7,3.7,0,0,1,2.532-.851,21.31,21.31,0,0,1,2.255.158h1.048l-.218,2.433h-.158a1.738,1.738,0,0,0-.633-1.385,2.569,2.569,0,0,0-1.7-.514,2.173,2.173,0,0,0-1.879.811,1.365,1.365,0,0,0-.3.87c0,.534.4,1.029,1.167,1.464L55.3,42.695a2.784,2.784,0,0,1,1.5,2.532,3.227,3.227,0,0,1-1.187,2.71,4.966,4.966,0,0,1-3.185.949,6.944,6.944,0,0,1-2.077-.277,3.022,3.022,0,0,1-1.4-.732A1.287,1.287,0,0,1,48.77,47.126Z" transform="translate(-48.77 -36.583)" fill="#ebb949"/>
      <path id="Path_827" data-name="Path 827" d="M61.59,48.373a.98.98,0,0,0,.673-.218,1.258,1.258,0,0,0,.4-.811l-.02-4.233-5.38.02.02,4.213a.932.932,0,0,0,.316.732,1.062,1.062,0,0,0,.752.3h.2l.02.158-5.044.02v-.158h.218a.932.932,0,0,0,.732-.317,1.035,1.035,0,0,0,.316-.732l-.02-9.2a1.083,1.083,0,0,0-.317-.732,1.016,1.016,0,0,0-.732-.3H53.5v-.158l5.044-.02-.04.158h-.2a1.062,1.062,0,0,0-.752.3.932.932,0,0,0-.316.732l.02,4.273,5.38-.02-.02-4.273a1.083,1.083,0,0,0-.317-.732,1.016,1.016,0,0,0-.732-.3h-.218V36.92L66.4,36.9v.158H66.18a1,1,0,0,0-.752.316.96.96,0,0,0-.317.732l.02,9.2a.932.932,0,0,0,.316.732,1.062,1.062,0,0,0,.752.3h.218v.158l-5.044.02v-.158Z" transform="translate(-44.144 -36.504)" fill="#ebb949"/>
      <path id="Path_828" data-name="Path 828" d="M67.156,36.78a7.129,7.129,0,0,1,4.886,1.6,5.641,5.641,0,0,1,1.82,4.411,5.627,5.627,0,0,1-1.8,4.411A7,7,0,0,1,67.2,48.846a7.128,7.128,0,0,1-4.886-1.6,5.641,5.641,0,0,1-1.82-4.411,6.219,6.219,0,0,1,.811-3.2,5.4,5.4,0,0,1,2.314-2.1A7.976,7.976,0,0,1,67.156,36.78Zm-2.868,9.95A3.441,3.441,0,0,0,67.2,48.154a3.4,3.4,0,0,0,2.888-1.444,6.4,6.4,0,0,0,1.068-3.917,7.234,7.234,0,0,0-.495-2.829,4.088,4.088,0,0,0-1.385-1.859,3.356,3.356,0,0,0-2.117-.633,3.447,3.447,0,0,0-2.888,1.444A6.4,6.4,0,0,0,63.2,42.833,6.508,6.508,0,0,0,64.288,46.73Z" transform="translate(-37.307 -36.622)" fill="#ebb949"/>
      <path id="Path_829" data-name="Path 829" d="M72.27,37.6H71.5l.02,9.673a1.04,1.04,0,0,0,.534.91,1.188,1.188,0,0,0,.534.138H72.8v.158l-5.044.02v-.158h.218a1.029,1.029,0,0,0,.91-.514,1.175,1.175,0,0,0,.138-.514V38.1a1.083,1.083,0,0,0-.317-.732,1.016,1.016,0,0,0-.732-.3H67.76V36.91l5.7-.02a5,5,0,0,1,2.73.692,2.48,2.48,0,0,1,.89.969,3.005,3.005,0,0,1,.336,1.4,3.422,3.422,0,0,1-.277,1.444,2.986,2.986,0,0,1-.91,1.167,2.819,2.819,0,0,1-1.523.593,3.364,3.364,0,0,1,1.7,1.464,12.4,12.4,0,0,0,2.67,3.4,2.064,2.064,0,0,0,1.088.277v.158H78.541a6.246,6.246,0,0,1-2.354-.376,3.217,3.217,0,0,1-1.543-1.325c-.2-.316-.455-.811-.771-1.444-.317-.653-.514-1.108-.613-1.385-.3-.653-.673-1.029-1.128-1.108v-.158h.514a2.151,2.151,0,0,0,1.325-.455,2.419,2.419,0,0,0,.771-1.464,3.528,3.528,0,0,0,.059-.554,2.793,2.793,0,0,0-.554-1.958,1.855,1.855,0,0,0-1.4-.613A5.189,5.189,0,0,0,72.27,37.6Z" transform="translate(-30.196 -36.514)" fill="#ebb949"/>
      <path id="Path_830" data-name="Path 830" d="M74.137,48.47a.932.932,0,0,0,.732-.316,1.035,1.035,0,0,0,.316-.732l-.02-9.238a1.062,1.062,0,0,0-.554-.87,1.175,1.175,0,0,0-.514-.138H73.88v-.158L80.23,37a8.164,8.164,0,0,0,1.128-.1,4.869,4.869,0,0,0,.87-.2v2.908h-.158v-.2a1.766,1.766,0,0,0-.435-1.207,1.813,1.813,0,0,0-1.187-.495H77.658l.02,4.827h2.2a1.4,1.4,0,0,0,1.009-.435,1.437,1.437,0,0,0,.4-1.009v-.158h.158l.02,3.837H81.3v-.138a1.305,1.305,0,0,0-.673-1.226,1.83,1.83,0,0,0-.732-.2H77.678l.02,4.668h2.176a3.011,3.011,0,0,0,2.037-.712,4.058,4.058,0,0,0,1.207-1.978h.158l-.752,3.383-8.585.02V48.43Z" transform="translate(-24.21 -36.7)" fill="#ebb949"/>
      <path id="Path_831" data-name="Path 831" d="M79.25,47.036A3.716,3.716,0,0,1,79.764,45h.158a1.129,1.129,0,0,0-.02.257,2.767,2.767,0,0,0,.831,2,2.982,2.982,0,0,0,2.255.851,2.616,2.616,0,0,0,1.741-.534,1.7,1.7,0,0,0,.613-1.345c0-.653-.455-1.226-1.325-1.7l-2.888-1.9a3.188,3.188,0,0,1-1.246-1.207,3.224,3.224,0,0,1,.613-3.838,3.7,3.7,0,0,1,2.532-.851,21.31,21.31,0,0,1,2.255.158h1.048l-.218,2.433h-.158a1.738,1.738,0,0,0-.633-1.385,2.569,2.569,0,0,0-1.7-.514,2.173,2.173,0,0,0-1.879.811,1.365,1.365,0,0,0-.3.87c0,.534.4,1.029,1.167,1.464L85.778,42.6a2.784,2.784,0,0,1,1.5,2.532,3.227,3.227,0,0,1-1.187,2.71,4.966,4.966,0,0,1-3.185.949,6.944,6.944,0,0,1-2.077-.277,3.021,3.021,0,0,1-1.4-.732A1.287,1.287,0,0,1,79.25,47.036Z" transform="translate(-18.958 -36.671)" fill="#ebb949"/>
    </g>
  </g>
</svg>
