<svg id="_13357228871579177879" data-name="13357228871579177879" xmlns="http://www.w3.org/2000/svg" width="50.513" height="50.513" viewBox="0 0 50.513 50.513">
  <ellipse id="Ellipse_5" data-name="Ellipse 5" cx="25.256" cy="25.256" rx="25.256" ry="25.256" fill="none"/>
  <g id="Group_53" data-name="Group 53" transform="translate(14.031 17.755)">
    <path id="Path_9" data-name="Path 9" d="M138.24,143.9h9.187c.209,0,.509-.1.6.15s-.18.374-.329.524c-2.963,2.918-5.94,5.82-8.888,8.753-.449.434-.718.419-1.152-.015-2.933-2.918-5.9-5.805-8.828-8.708-.165-.165-.494-.284-.374-.569s.449-.135.688-.15Q133.676,143.905,138.24,143.9Z" transform="translate(-127.014 -143.862)" fill="#4b97aa"/>
    <path id="Path_10" data-name="Path 10" d="M137.16,205.879h-9.127c-.254,0-.613.135-.748-.165-.1-.254.224-.419.374-.584q2.671-2.828,5.327-5.656c.3-.329.479-.374.808-.03.958.988,1.96,1.915,2.918,2.9.389.4.658.389,1.047,0,.958-.973,1.96-1.915,2.918-2.888.269-.284.434-.269.7.015,1.855,1.96,3.711,3.89,5.566,5.85.12.12.314.254.224.434-.09.224-.344.15-.539.15C143.489,205.879,140.317,205.879,137.16,205.879Z" transform="translate(-126.024 -190.926)" fill="#4b97aa"/>
    <path id="Path_11" data-name="Path 11" d="M233.078,158.242v5.521c0,.239.12.554-.135.688-.3.135-.419-.195-.569-.359-1.781-1.855-3.546-3.711-5.327-5.551-.3-.3-.374-.464-.015-.808,1.81-1.736,3.591-3.516,5.4-5.282.15-.135.254-.434.539-.284.209.1.12.359.12.554C233.078,154.562,233.078,156.4,233.078,158.242Z" transform="translate(-210.66 -150.89)" fill="#4b97aa"/>
    <path id="Path_12" data-name="Path 12" d="M118.993,158.248v-5.521c0-.209-.1-.494.18-.584.224-.06.344.165.479.3,1.8,1.766,3.576,3.531,5.386,5.282.284.269.284.419.015.7-1.825,1.9-3.621,3.83-5.446,5.746-.135.135-.239.374-.464.284s-.15-.344-.15-.539Z" transform="translate(-118.974 -150.896)" fill="#4b97aa"/>
  </g>
</svg>
