<svg xmlns="http://www.w3.org/2000/svg" width="117.052" height="117.054" viewBox="0 0 117.052 117.054">
  <g id="_13357228871579177879" data-name="13357228871579177879" transform="translate(2.5 2.5)">
    <ellipse id="Ellipse_5" data-name="Ellipse 5" cx="56.026" cy="56.027" rx="56.026" ry="56.027" fill="none" stroke="#803d0c" stroke-miterlimit="10" stroke-width="5"/>
    <g id="Group_53" data-name="Group 53" transform="translate(31.124 39.385)">
      <path id="Path_9" data-name="Path 9" d="M150.192,143.941h20.379c.465,0,1.128-.232,1.328.332.2.531-.4.83-.73,1.162-6.572,6.472-13.177,12.911-19.715,19.417-1,.963-1.593.929-2.556-.033-6.505-6.472-13.077-12.878-19.582-19.317-.365-.365-1.1-.631-.83-1.261.266-.6,1-.3,1.527-.332Q140.069,143.958,150.192,143.941Z" transform="translate(-125.291 -143.862)" fill="#4b97aa" stroke="#707070" stroke-width="1"/>
      <path id="Path_10" data-name="Path 10" d="M149.216,214.008H128.969c-.564,0-1.361.3-1.66-.365-.232-.564.5-.929.83-1.294q5.924-6.273,11.816-12.546c.664-.73,1.062-.83,1.792-.066,2.124,2.191,4.348,4.249,6.472,6.439.863.9,1.46.863,2.323,0,2.124-2.157,4.348-4.248,6.472-6.406.6-.631.963-.6,1.56.033,4.116,4.348,8.231,8.63,12.347,12.978.266.266.7.564.5.963-.2.5-.763.332-1.195.332C163.255,214.008,156.219,214.008,149.216,214.008Z" transform="translate(-124.513 -180.837)" fill="#4b97aa" stroke="#707070" stroke-width="1"/>
      <path id="Path_11" data-name="Path 11" d="M240.735,165.693v12.248c0,.531.266,1.228-.3,1.527-.664.3-.929-.431-1.261-.8-3.95-4.116-7.866-8.231-11.816-12.314-.664-.664-.83-1.029-.033-1.792,4.016-3.85,7.966-7.8,11.982-11.717.332-.3.564-.963,1.195-.631.465.232.266.8.266,1.228C240.735,157.528,240.735,161.611,240.735,165.693Z" transform="translate(-191.007 -149.384)" fill="#4b97aa" stroke="#707070" stroke-width="1"/>
      <path id="Path_12" data-name="Path 12" d="M119.016,165.7V153.45c0-.465-.232-1.1.4-1.294.5-.133.763.365,1.062.664,3.983,3.917,7.933,7.833,11.949,11.717.631.6.631.929.033,1.56-4.049,4.215-8.032,8.5-12.081,12.745-.3.3-.531.83-1.029.631s-.332-.763-.332-1.195Z" transform="translate(-118.974 -149.388)" fill="#4b97aa" stroke="#707070" stroke-width="1"/>
    </g>
  </g>
</svg>
