<svg xmlns="http://www.w3.org/2000/svg" width="117.051" height="117.054" viewBox="0 0 117.051 117.054">
  <g id="_11706569001579177879" data-name="11706569001579177879" transform="translate(2.5 2.5)">
    <ellipse id="Ellipse_4" data-name="Ellipse 4" cx="56.026" cy="56.027" rx="56.026" ry="56.027" fill="none" stroke="#803d0c" stroke-miterlimit="10" stroke-width="5"/>
    <path id="Path_8" data-name="Path 8" d="M161.893,172.367a17.287,17.287,0,0,1-7.136-1.693c-10.057-5.045-18.089-12.181-23.1-22.437a25.143,25.143,0,0,1-1.925-5.277,11.475,11.475,0,0,1,4.713-12.347c2.257-1.56,3.95-1.294,5.476.963a66.267,66.267,0,0,1,4.746,7.368c1.029,2.025,1.361,3.85-.465,5.875-2.29,2.522-2.157,5.344,0,7.933a62.692,62.692,0,0,0,4.182,4.68c2.423,2.456,4.912,2.788,8,1.294a6.487,6.487,0,0,0,1.162-.631c2.622-2.191,5.111-1.792,7.634.166,1.826,1.427,3.883,2.523,5.543,4.182,1.925,1.892,1.991,3.153.465,5.41C169.029,171.106,165.843,172.3,161.893,172.367Z" transform="translate(-94.815 -94.965)" fill="#4b97aa" stroke="#707070" stroke-width="1"/>
  </g>
</svg>
