<svg id="_11706569001579177879" data-name="11706569001579177879" xmlns="http://www.w3.org/2000/svg" width="50.512" height="50.513" viewBox="0 0 50.512 50.513">
  <ellipse id="Ellipse_4" data-name="Ellipse 4" cx="25.256" cy="25.256" rx="25.256" ry="25.256" fill="none"/>
  <path id="Path_8" data-name="Path 8" d="M144.048,148.893a7.793,7.793,0,0,1-3.217-.763,22.1,22.1,0,0,1-10.414-10.115,11.334,11.334,0,0,1-.868-2.379,5.173,5.173,0,0,1,2.125-5.566,1.524,1.524,0,0,1,2.469.434,29.872,29.872,0,0,1,2.14,3.322,2.073,2.073,0,0,1-.209,2.648,2.5,2.5,0,0,0,0,3.576,28.26,28.26,0,0,0,1.885,2.11,2.8,2.8,0,0,0,3.606.584,2.924,2.924,0,0,0,.524-.284,2.462,2.462,0,0,1,3.441.075,25.4,25.4,0,0,1,2.5,1.885,1.57,1.57,0,0,1,.209,2.439A4.7,4.7,0,0,1,144.048,148.893Z" transform="translate(-113.809 -114.001)" fill="#4b97aa"/>
</svg>
