<svg xmlns="http://www.w3.org/2000/svg" width="316" height="316" viewBox="0 0 316 316">
  <g id="Group_66" data-name="Group 66" transform="translate(-653 -2644)">
    <g id="Group_65" data-name="Group 65" transform="translate(653 2644)">
      <g id="Group_64" data-name="Group 64">
        <path id="Path_23" data-name="Path 23" d="M158,0A158,158,0,1,1,0,158,158,158,0,0,1,158,0Z" transform="translate(0 0)" fill="#985832"/>
      </g>
      <g id="Untitled-3" transform="translate(42.37 80.392)">
        <path id="Path_24" data-name="Path 24" d="M253.872,352.493A48.47,48.47,0,0,1,265.2,321.283a38.962,38.962,0,1,0,1,63.575A48.48,48.48,0,0,1,253.872,352.493Z" transform="translate(-185.997 -314.47)" fill="#f4e1c8"/>
        <path id="Path_25" data-name="Path 25" d="M355.967,352.493a48.47,48.47,0,0,0-11.324-31.209,38.962,38.962,0,1,1-1,63.575A48.48,48.48,0,0,0,355.967,352.493Z" transform="translate(-192.19 -314.47)" fill="#f4e1c8"/>
        <circle id="Ellipse_7" data-name="Ellipse 7" cx="38.959" cy="38.959" r="38.959" transform="translate(76.676 0)" fill="#f4e1c8"/>
        <path id="Path_26" data-name="Path 26" d="M244.224,404.694s-20.105.631-32.681-11.314c0,0-20.105,9.422-25.132,31.42,0,0-1.261,4.4-1.261,13.827v34.315h49.212S229.776,421.665,244.224,404.694Z" transform="translate(-185.15 -317.975)" fill="#f4e1c8"/>
        <path id="Path_27" data-name="Path 27" d="M365.34,404.954s20.105.631,32.681-11.314c0,0,20.105,9.422,25.132,31.42,0,0,1.261,4.4,1.261,13.827V473.2H375.2S379.8,421.916,365.34,404.954Z" transform="translate(-193.154 -317.987)" fill="#f4e1c8"/>
        <path id="Path_28" data-name="Path 28" d="M358.83,425.06c-5.026-22-25.132-31.42-25.132-31.42-9.871,9.374-24.386,11-30.168,11.266-5.781-.268-20.3-1.892-30.168-11.266,0,0-20.105,9.422-25.132,31.42,0,0-1.261,4.4-1.261,13.827V473.2H360.082V438.887C360.082,429.465,358.83,425.06,358.83,425.06Z" transform="translate(-187.896 -317.987)" fill="#f4e1c8"/>
      </g>
    </g>
  </g>
</svg>
