<svg xmlns="http://www.w3.org/2000/svg" width="316" height="316" viewBox="0 0 316 316">
  <g id="Group_68" data-name="Group 68" transform="translate(-1199 -2530)">
    <g id="Group_67" data-name="Group 67" transform="translate(1199 2530)">
      <g id="Group_65" data-name="Group 65">
        <g id="Group_64" data-name="Group 64">
          <path id="Path_23" data-name="Path 23" d="M158,0A158,158,0,1,1,0,158,158,158,0,0,1,158,0Z" transform="translate(0)" fill="#985832"/>
        </g>
      </g>
    </g>
    <g id="icon_2" data-name="icon 2" transform="translate(1215.851 2553.487)">
      <path id="Path_29" data-name="Path 29" d="M234.322,402.515s17.439,13.7,33.633,17.439L256.744,350.2s12.457-7.474,7.474-38.616c0,0,16.194-28.65,9.965-31.142s-8.72,7.474-17.439,26.159c0,0-2.317.972-1.781-3.251s5.693-36.2,0-37.034-4.447,1.669-10.675,36.548c0,0-3.737,2.491-3.737-2.491S238.059,263,233.076,263s-6.228,2.491-4.983,13.7,3.737,27.4,1.246,27.4-12.457-29.9-18.685-29.9-6.228,3.737-1.246,14.948,11.211,23.668,9.965,29.9-2.491,4.983-6.228,2.491-13.7-12.457-23.668-6.228S203.18,320.3,208.163,334s23.169,20.79,23.169,20.79Z" transform="translate(-187.055 -161.345)" fill="#f4e1c8"/>
      <path id="Path_30" data-name="Path 30" d="M386.1,398.558s-17.1,14.126-33.2,18.249l9.517-70.007s-12.631-7.175-8.408-38.429c0,0-16.879-28.252-10.713-30.893s8.894,7.262,18.075,25.723c0,0,2.329.909,1.694-3.3s-6.577-36.05-.9-37.021,4.484,1.557,11.56,36.274c0,0,3.8,2.4,3.675-2.579s1.582-37.42,6.565-37.545,6.291,2.342,5.319,13.578-3.077,27.492-.585,27.43,11.734-30.2,17.95-30.344,6.315,3.588,1.607,14.911-10.638,23.929-9.243,30.133,2.616,4.92,6.291,2.342,13.391-12.781,23.506-6.8-13.578,5.319-18.224,19.133-22.659,21.351-22.659,21.351Z" transform="translate(-149.003 -162.321)" fill="#f4e1c8"/>
      <path id="Path_31" data-name="Path 31" d="M387.025,218.747c-9.691-5.394-15.857,10.426-34.057,39.226,0,0-3.986,1.109-2.23-5.705s16.916-58.148,7.748-60.689-7.648,1.794-25.15,57.662c0,0-6.652,3.3-5.605-4.871s3.737-61.773-4.422-62.819-10.725,2.778-11.037,21.413.386,45.7-3.7,45.18-14.163-51.608-24.365-52.916-10.987,4.821-5.17,24.241,13.416,41.145,10.077,51.1-5.132,7.648-10.725,2.778-19.856-23.282-37.495-15.16,21.413,11.037,26.72,34.542,33.621,38.927,33.621,38.927l-4.26,65.946h0l-.835,12.893.149.149-1.981,38.08c18.536,4.983,53.3-2.591,53.3-2.591l-.361-11.3h0l-3.413-105.4S365.824,319.8,364.18,267.7C364.167,267.714,396.717,224.141,387.025,218.747Z" transform="translate(-174.943 -181.393)" fill="#f4e1c8"/>
    </g>
  </g>
</svg>
