<svg xmlns="http://www.w3.org/2000/svg" xmlns:xlink="http://www.w3.org/1999/xlink" width="1921" height="878" viewBox="0 0 1921 878">
  <defs>
    <clipPath id="clip-path">
      <rect id="Rectangle_106" data-name="Rectangle 106" width="1921" height="878" transform="translate(-1 3469)" fill="#fff" stroke="#707070" stroke-width="1"/>
    </clipPath>
    <clipPath id="clip-path-2">
      <rect id="Rectangle_160" data-name="Rectangle 160" width="2089.315" height="1671.62" fill="#2c6a91"/>
    </clipPath>
  </defs>
  <g id="Mask_Group_37" data-name="Mask Group 37" transform="translate(1 -3469)" clip-path="url(#clip-path)">
    <g id="waves2" transform="translate(-212.982 3467.883) rotate(-13)">
      <g id="Group_114" data-name="Group 114" transform="translate(0 0)" clip-path="url(#clip-path-2)">
        <path id="Path_810" data-name="Path 810" d="M-60.43,1106.978c-.4,1.579-.806,3.165-1.272,4.992,7.175.768,14.154,1.629,21.159,2.247,23.049,2.048,45.981,4.843,69.227,5.661,7.265.256,14.449,2.582,21.571,4.238,2.007.469,3.646,1.934,6.172,3.349-14.87,6.905-32.06,1.956-45.883,7.915-.054.583-.107,1.173-.17,1.757,1.971.64,3.924,1.792,5.912,1.835,11.3.235,22.628.384,33.933.206,9.2-.142,18.391-.8,27.581-1.195,26.489-1.152,53.049-1.33,79.332-4.843,5.437-.725,11.206.064,16.823.249,12.443.419,24.939,1.728,37.31,1.18,19.277-.86,38.582-2.382,57.671-4.708,21.168-2.574,42.1-6.351,63.127-9.636,10.767-1.685,21.768-2.816,32.213-5.355,11.583-2.816,23.174-5.789,33.834-10.831,6.8-3.221,14.754-4.921,22.207-7.261a269.844,269.844,0,0,0,46.6-19.364c12.837-6.863,25.629-13.945,39.316-19.592,27.456-11.314,50.63-27.329,75.354-41.63,17.307-10.013,33.539-21.348,51.7-30.23,15.981-7.815,29.91-18.184,46.805-24.478,12.747-4.75,23.6-11.449,35.393-17.174a71.211,71.211,0,0,1,13.177-4.331c4.542-1.166,8.734.071,12.756,1.948,15.148,7.055,15.184,5.135,5.178,16.989-12.093,14.322-25.665,27.87-39.012,41.5-19.555,19.976-44.593,34.533-72.846,45.961-6.244,2.525-11.368,6.749-17.1,10.1-11.995,6.99-23.945,14.045-36.145,20.8a70.474,70.474,0,0,1-12.774,5.078c-20.738,6.535-40.857,14.436-62.813,18.348-3.771.668-7.641,1-11.368,1.806-1.63.349-3,1.493-5.545,2.83,15.972,3.613,29.015-.668,42.281-3.926a85.873,85.873,0,0,1,15.488-2.745c12.756-.711,24.321-4.423,35.6-8.6,19.86-7.353,36.369-18.7,53.362-29.406,5.59-3.52,11.072-7.154,16.662-10.674a14.03,14.03,0,0,1,4.551-2.2c13.374-2.6,22.305-10.418,32.625-16.783,13.07-8.064,23.891-17.6,34.183-27.77,14.924-14.742,30.5-29.064,45.775-43.593,4-3.8,8.035-7.6,11.762-11.57a20.665,20.665,0,0,1,11.556-6.18c5.4-1.088,10.633-2.7,16.823-4.31A22.592,22.592,0,0,1,804.97,950.7a291.106,291.106,0,0,1-36.826,41.786c-13.07,12.281-25.217,25.174-37.632,37.883-22.081,22.6-47.871,41.936-76.958,58.946-29.481,17.238-62.741,27.962-95.85,39.3a287.488,287.488,0,0,1-42.344,11.072,11.406,11.406,0,0,0-5.966,2.624c3.261.2,6.53.391,9.791.612,16.411,1.081,31.64-2.731,46.787-7.012,10.1-2.859,20.3-5.54,30.466-8.256a9.469,9.469,0,0,1,4.631-.064c-11.95,10.34-26.076,18.447-41.69,26.454,7.74.484,13.2-2.119,18.489-4.409,11.995-5.184,23.855-10.6,35.4-16.385,4.452-2.233,8.053-5.618,11.8-8.662,18.211-14.77,39.522-26.589,59.579-39.6,21.159-13.739,43.043-26.831,60.9-43.564,11.923-11.179,25.136-21.5,37.1-32.641,6.324-5.888,11.359-12.672,16.76-19.172,5.079-6.116,9.818-12.409,14.807-18.575,3.861-4.772,7.6-9.636,11.914-14.145,4.828-5.049,10.248-9.743,16.2-15.332,3.655,3.236,6.611,5.76,9.415,8.384,1.147,1.074,1.89,2.411,2.92,3.57,9.612,10.859,9.97,13.256.645,24.527-8.008,9.686-16.617,19.073-25.235,28.431-18.543,20.139-40.167,38.01-63.79,54.445-16.769,11.67-33.019,23.759-47.791,37.121-6.817,6.173-15.408,11.115-23.273,16.541a15.194,15.194,0,0,1-3.359,1.4c2.177,4.651,5.124,4.679,8.5,3.335,14.888-5.91,29.973-11.378,42.738-20.3,11.368-7.936,23.64-15.1,35.868-22.223,9.836-5.732,19.233-11.606,26.82-19.386,7.462-7.652,16.169-14.529,24.124-21.882,18.6-17.21,38.017-33.921,52.78-53.513,2.293-3.044,4.345-6.2,6.727-9.2,2.92-3.662,7.041-5.369,12.738-5.362,10.579.007,15.184-2.909,19.062-11.186,5.231-11.158,12.828-14.514,28.414-12.025-1.12,2.645-2.15,5.234-3.323,7.787-3.682,8-6.987,16.129-11.278,23.916a98.627,98.627,0,0,1-11.4,16c-9.146,10.745-16.357,22.564-27.841,32.008-12.819,10.539-26.318,20.588-38.483,31.575-15.667,14.145-36.638,22.522-55.145,33.566-6.62,3.947-14.3,6.756-21.221,10.4-6.674,3.513-12.738,7.78-19.555,11.094-16.483,8.036-33.261,15.7-49.887,23.546-.7.327-1.174.96-3.091,2.574,11.027-.213,19.519-4.11,29.749-6.03-3.413,3.648-5.823,6.222-9.227,9.863,10.508,1.209,18.865-.227,27.25-1.465,2.616-.384,5.384-1.181,7.874-.839,11.592,1.621,22.019-1.294,31.738-5.483,15.667-6.749,31.828-12.893,45.811-21.91,19.385-12.5,38.922-24.854,58.415-37.25,4.649-2.958,9.728-5.561,13.992-8.832,20.128-15.474,38.994-31.831,54.885-50.249,7.211-8.363,14.861-16.484,22.135-24.819,3.529-4.039,6.656-8.306,10.293-12.879,10.947,6.955,17.235,18.191,33.754,19.955-1.72,3.449-2.9,6.514-4.7,9.33-12.568,19.734-28.343,37.719-46.841,54.253-2.293,2.048-3.01,5.206-4.452,7.844l1.6.932c4.837-3.022,9.872-5.874,14.476-9.1,7.372-5.163,14.745-10.368,21.607-15.951,5.8-4.708,10.947-9.927,16.25-15.012,7.91-7.581,15.882-15.126,23.5-22.892a189.047,189.047,0,0,0,14.87-16.726c2.75-3.563,4.344-7.723,6.181-11.7,1.926-4.167,5.464-5.6,10.31-3.364,4.336,2.005,8.268,4.573,12.917,7.19-1.818,7.908-4.479,15.908-9.979,22.465-11.547,13.76-23.909,27.173-37.05,40-8.421,8.214-19.134,14.657-30.806,20.289-14.189,6.848-27.152,15.275-40.732,22.927-13.616,7.673-27.053,15.567-41.063,22.757-17.495,8.982-35.411,17.444-53.291,25.935-14.763,7-29.749,13.7-44.584,20.609-1.344.626-2.275,1.8-4.6,3.7,3.386.292,5.348.86,7.005.526,5.428-1.109,10.857-2.311,16.079-3.911,11.878-3.634,24.321-5.966,35.617-10.973,17.405-7.716,35.411-14.586,52.834-22.28,8.8-3.883,16.769-8.918,25.279-13.227,10.275-5.206,21.078-9.8,31.039-15.346,22.44-12.509,44.36-25.587,63.736-41.125a7.474,7.474,0,0,0,1.809-1.564c7.31-12.459,22.171-20.31,30.887-31.959,3.592-4.8,8.492-8.982,13.49-14.159,3.171,6.976.708,14.379,6.521,19.94,5.446,5.213,10.758,10.511,15.739,15.4-26.22,29.42-58.1,52.482-96.791,69.55-6.244,2.752-12.192,5.938-18.283,8.911a60.848,60.848,0,0,1-7.686,3.605c-16.8,5.483-30.4,15.439-47.1,21.071-2.481.839-4.4,2.731-6.172,4.558,34.354-7.04,64.506-21.163,95.447-33.879,31.192-12.815,59.857-28.766,89.123-46.039-.752,2.283-.976,3.776-1.738,5.07a15.7,15.7,0,0,1-3.395,4.16c-15.972,13.362-30.278,28-49.385,38.942a254.978,254.978,0,0,1-54.8,23.674c-15.264,4.494-31.353,7.211-47.047,10.788-5.724,1.3-11.332,2.937-17.065,4.2-6.862,1.508-13.849,2.674-20.72,4.174-6.271,1.373-12.4,3.179-18.7,4.445-6.342,1.266-12.837,2.055-19.242,3.136-3.924.668-7.8,1.5-13.527,2.61,6.7,3.278,11.78,4.729,17.558,4.871,2.616.064,5.966.043,7.668,1.237,4.631,3.257,9.056,2.439,14.117,1.116,11.592-3.036,23.219-6.023,34.99-8.6,22.386-4.893,45.076-8.946,67.265-14.329,25.109-6.087,50.156-13.057,68.869-28.623,11.26-9.366,24.867-16.107,37.39-24.051,1.55-.981,3.673-1.394,6.306-2.347,3.413,3.7,7.005,7.119,9.943,10.866,5.079,6.486,12.272,8.69,21.392,7.282,9.63-1.493,18.964-3.193,27.671-7.5,13.329-6.6,26.641-13.633,42.81-15.467,3.072-.348,6.136-.782,9.2-1.181.331.448.672.889,1,1.337-2.195,2.119-4.255,4.345-6.62,6.336-8.394,7.069-17.119,13.839-28.28,18.219a14.638,14.638,0,0,0-3.081,1.429c-20.021,14.308-45.085,20.908-69.433,28.581-8.591,2.709-17.19,5.454-26,7.638-21.293,5.277-42.416,11.407-65.312,10.468a29.183,29.183,0,0,0-4.192.576c3.467,2.93,7.1,3.492,10.955,3.527,13.088.121,26.175.285,39.057-2.212,18.184-3.527,36.539-6.557,54.589-10.482,14.046-3.058,28.021-6.607,41.511-10.952a316.867,316.867,0,0,0,56.077-24.627c11.681-6.443,24.688-11.364,37.1-16.961a8.219,8.219,0,0,1,8.313.7c5.42,3.605,10.732,7.311,15.811,10.781-.672,1.287-.771,2.005-1.129,2.1-7.3,1.9-12.98,6.045-19.6,8.854a209.059,209.059,0,0,1-20.155,7.673c-7.74,2.382-15.757,4.281-23.792,5.974-17.558,3.705-35.223,7.1-52.789,10.767-2.58.541-5.957.583-7.507,4.039,13.294.69,25.4-4.807,38.725-2.546-17.343,7.666-37.22,10.354-52.718,20.68,8.447-1.465,17.02-2.567,25.3-4.473,11.1-2.553,22.028-5.6,32.92-8.669,8.976-2.525,17.6-5.952,26.74-7.965,18.113-3.99,35.975-8.356,53.076-14.657,3.977-1.465,8.734-1.543,12.953-2.66,6.468-1.721,10.911,0,14.584,4.658-1.46,1.252-2.759,2.489-4.21,3.591-18.382,14-39.657,23.944-64.273,29.5-13.473,3.037-26.686,6.791-40,10.269a6.527,6.527,0,0,0-3.933,2.88c2.688.228,5.375.576,8.071.668,5.321.185,10.651.235,15.981.334,2.678.05,5.724.775,7.964.014,11.663-3.968,24.294-4.459,36.352-6.927,10.364-2.119,20.54-4.836,30.69-7.552,3.306-.882,6.154-2.8,9.4-3.89,7.919-2.652,16.187-4.715,23.873-7.737,7-2.752,13.2-2.638,19.161,1.116,9.773,6.158,21.857,8.271,32.921,12.161,1.6.562,3.493.86,4.766,1.735,3.628,2.5,6.96,4.345,11.466.946.734-.555,3.153.292,5.043.519,2.016-6.585-3.153-14.863,9.343-18.426-8.25-5.874-6.969-13.846-8.761-21.085-1.165-4.7-3.619-7.609-9.442-10.063-8.832-3.726-16.5-9.181-24.715-13.86-2.867-1.636-5.9-3.079-8.788-4.7-11.2-6.294-22.834-12.153-23.685-24.9a57.064,57.064,0,0,0-3.959-15.937c-3.135-8.377-9.415-15.418-17.988-20.765-15.416-9.629-29.7-20.289-46.178-28.993-13.294-7.026-25.324-15.83-36.674-24.826-9.065-7.183-14.422-16.669-18.239-26.44a192.249,192.249,0,0,1-6.629-19.9,64.532,64.532,0,0,1-2.051-14.045c-.3-6.927-.941-13.7-5.464-19.855a5.3,5.3,0,0,1-1.021-1.963c-2.033-10.12-10.982-17.1-18.041-24.89-4.138-4.566-10.078-7.4-17.065-8.384-17.029-2.4-34-5.234-51.168-6.784-25.781-2.333-46.948-11.165-65.285-25.445-9.961-7.751-20.738-14.778-33.978-19.236-11.072-3.726-22.341-3.733-33.288-1.693-12.7,2.361-25.046,6.1-37.31,9.735a153.1,153.1,0,0,1-56.184,6.052c-13.625-1.088-27.214-2.958-40.866-3.25-17.038-.363-33.9,1.422-49.573,7.46-19.528,7.524-39.334,14.635-58.522,22.671-11.018,4.615-20.621,11.364-31.657,15.958-10.364,4.317-20.415,9.465-32.7,10.66-7.587.74-14.942,3.079-22.341,4.857a75.014,75.014,0,0,1-25.593,1.735c-12.667-1.33-25.333-2.738-38.062-3.584-13.733-.917-27.393-.5-40.5,3.655-2.732.868-5.8,1.785-8.627,1.621a42.992,42.992,0,0,0-18.229,2.823c-5.267,2.055-9.245.754-12.774-2.29-5.052-4.345-10.382-8.548-14.843-13.263-6.253-6.607-11.7-13.682-17.728-20.431a85.569,85.569,0,0,0-8.635-8.143c-11.995-10.148-17.835-22.237-18.426-36.041a12.289,12.289,0,0,1,.125-4.253c5.724-17.85,9.119-36.225,18.874-53.165a45.784,45.784,0,0,1,11.807-14.031,131.238,131.238,0,0,0,16.4-15.809c5.993-6.585,14.485-10.4,22.986-14.322.251-.121.573-.149.833-.263,10.579-4.637,21.284-6.855,32.84-1.892,5.9,2.539,11.475-1.1,17.262-1.479,5.93-.384,11.869-2.731,17.352-4.935,8.232-3.307,14.512.192,20.558,3.321,16.079,8.342,29.8,18.618,40.839,31.3,7.838,9.01,20.245,10.987,33.323,10.717,4.38-.092,6.127-2.809,7.614-5.312,7.113-11.99,19.179-19.99,34.4-24.015,11.645-3.079,18.221-9.529,24.025-16.939,2.033-2.589,2.445-6.365,2.293-9.558-.269-5.419-.511-11.087-2.687-16.129-3.861-8.939-2.678-17.131,2.445-25.3a14.568,14.568,0,0,1,1.093-1.941c7.686-8.989,7.068-18.71,4.13-28.659-6.3-21.32-19.743-39.575-38.806-55.113a119.85,119.85,0,0,0-23.246-14.322c-9.316-4.516-16.724-10.5-24.572-16.285-13.079-9.65-25.942-20.019-43.661-24.065a216.383,216.383,0,0,0-36.808-5.213,204.786,204.786,0,0,1-58.522-11.876,17.269,17.269,0,0,1-3.162-1.287c-16.931-10.482-37.525-12.886-57.617-16.164-5.715-.932-11.851-.484-17.773-.334-13.105.327-26.2.932-39.307,1.309-12.057.348-23.667-1.735-35.1-4.523a13.5,13.5,0,0,1-3.87-1.721c-16.321-10.077-35.106-14.593-55.459-15.908-5.294-.341-10.463-1.828-15.73-2.581Q318.2,463,290.928,459.278c-7.014-.967-14.064-1.778-21.051-2.83a22.291,22.291,0,0,1-6.647-1.956,25.9,25.9,0,0,0-15.264-2.937,7.231,7.231,0,0,1-7.2-3.008c-11.511-14.073-24.088-27.628-34.846-42.043-11.386-15.247-20.711-31.376-20.8-49.751-.009-1.643.663-3.293.582-4.921-.242-4.942.555-10.2-1.308-14.749-6.96-17.018-4.3-33.139,5.33-48.841,4.165-6.8,8.564-13.526,13.3-20.083a26.4,26.4,0,0,1,7.525-6.827c5.178-3.15,13.132-1.82,14.807,3,2.213,6.343,6.978,9.245,14.44,10.888,9.728,2.141,10.078,2.333,20.675-2.062a18.215,18.215,0,0,1,8.205,14.109,150.344,150.344,0,0,0,2.347,18.212c1.5,7.012,12.908,12.374,21.3,9.9,4.461-1.316,6.933-.533,10.122,1.934,10.015,7.773,23.533,9.131,35.4,3.989,2.965-1.287,3.968-3.314,3.87-5.917-.125-3.271-.027-6.542-.027-10.973,3.726.512,6.844.3,8.886,1.372,3.019,1.586,7.3,2.994,6.88,6.763-.439,3.975,2.526,6.151,6.02,8.086,6.118,3.385,12.174,6.813,20.415,5.9,2.535-.277,5.249.7,7.91.9,5.894.441,11.8,1.017,17.7,1,3.529-.007,6.853-.91,10.257.974a5.6,5.6,0,0,0,7.552-1.778c1.935-2.66,3.27-5.6,5.384-8.15,1.165-1.415,3.323-3.086,5.124-3.157,1.675-.064,3.9,1.593,5.124,2.93,1.908,2.077,3.144,4.53,4.73,6.8,3.6,5.142,9.728,6.912,15.578,3.712,4.748-2.6,10.526-4.679,12.281-9.871.43-1.273,1.872-2.4,3.082-3.428,2.069-1.749,3.359-3.307,3.332-6.13-.045-4,2.213-7.545,7.731-9.352,19.663-6.429,19.322-13.867,15.255-26.39-1.926-5.924-5.106-11.584-7.435-17.437a11.29,11.29,0,0,1-.43-5.44c.582-4.708,1.559-9.38,2.123-14.088a9.339,9.339,0,0,0-.663-4.886c-7.139-15.858-15.157-31.2-33.852-41.218-7.614-4.082-14.225-9.316-21.58-13.725-9.755-5.846-16.384-13.689-22.852-21.647-3.243-3.99-5.688-8.214-5.437-13.256.6-12.175-7.139-21.171-18.328-28.574-11.43-7.559-22.484-15.652-34.9-22.06-11.663-6.016-24.634-10.6-37.48-14.962-13.41-4.558-27.438-7.965-37.623-17.01-1.487-1.323-4.085-1.856-6.145-2.788-2.571-1.173-5.5-2.055-7.614-3.627-9.764-7.254-21.642-11.556-33.637-15.773-19.6-6.9-39.092-13.9-60.027-18.163C172.96,18.706,167.6,15.108,162,12.476c-1.236-.583-1.971-2.027-3.243-2.361C140.631,5.3,123.719-2.266,103.563-2.237,87.887-2.209,72.175-4.129,56.534-5.6,32.025-7.9,7.785-7.884-16.061-2.038c-3.7.91-7.453,1.685-11.233,2.368A191.561,191.561,0,0,0-79.062,17.084c-9.764,4.871-20.971,6.813-32.329,7.41A77.644,77.644,0,0,0-154.381,39.77c-8.528,6.237-17.414,11.912-28.191,15.965A199.552,199.552,0,0,0-212.8,70.69c-12.461,7.289-24.034,15.531-36.244,23.1-12.926,8.007-28.235,12.047-43.643,15.915-16.474,4.139-33.368,7.609-49.107,13.121-13.8,4.829-26.417,11.862-39.218,18.34-10.373,5.248-20.693,10.141-33.153,11.776-13.231,1.735-26.22,4.814-39.5,6.073-15.909,1.508-31.962,2.958-48.086,1.074a431.724,431.724,0,0,0-70.517-2.795c3.924,1.636,6.468,2.7,10.257,4.281-3.243.6-5.294.988-7.435,1.394.394.64.546,1.287.842,1.33,13.992,2.027,27.967,4.089,41.995,5.952,6.163.818,12.416,1.18,18.615,1.821,10.911,1.131,21.777,3.065,32.714,3.3a294.042,294.042,0,0,0,37.462-1.685c13.849-1.479,27.483-4.182,41.216-6.322,17.692-2.759,34.21-8.143,50.451-14.159,12.962-4.8,26.274-9.088,38.86-14.45,11.484-4.893,22.117-11.023,33.252-16.434,13.786-6.706,26.112-14.856,38.537-23.012,5.312-3.492,12.577-5.234,19.188-7.325,19.385-6.13,37.05-13.867,48.749-28.438,3.592-4.473,9.11-7.958,13.571-12.018,2.517-2.3,4.3-5.156,7.068-7.218C-136.6,36.6-125.742,30.269-110.263,29.97c17.575-.334,33.324-6.564,49.09-12.274,9.46-3.428,19.2-6.407,28.934-9.316C-21.857,5.28-11.062,6.588-.376,7.072,9.4,7.513,19.207,8.5,28.944,8.2c10.033-.313,20-1.906,30.1-2.951a4.561,4.561,0,0,1,1.487.548c3.153,2.766,5.643,7.175,9.469,8.071,12.129,2.859,24.025,7.111,37.364,5.732a229.422,229.422,0,0,1,26.722-1.2,32.978,32.978,0,0,1,13.491,2.887C168.356,31.627,189.8,40.431,213.8,45.438c8.868,1.849,16.733,6.8,24.966,10.454,15.327,6.806,27.062,17.928,43.751,23.076,4.694,1.444,9.54,2.581,14.351,3.762,7.1,1.735,14.422,3,21.32,5.134,11.565,3.584,23.04,7.4,34.237,11.648,14.682,5.575,27.483,13.313,37.471,23.6A22.875,22.875,0,0,1,394.75,132c3.01,9.159,5.357,18.632,12.568,26.341a209.472,209.472,0,0,0,22.234,20.26,147.786,147.786,0,0,1,21.956,22.188c4.506,5.49,9.549,10.7,13.885,16.271,2.141,2.752,3.216,6.023,4.909,9.309-4.461,2.468-7.973,1.757-11.529-.626a64.711,64.711,0,0,0-8.591-5.028c-5.939-2.773-12.335-3.655-18.892-1.493-8.815,2.9-17.029.469-25.118-1.82-2.168-.612-3.789-2.745-5.321-4.388-1.926-2.062-3.055-4.7-5.321-6.443-5.652-4.331-11.153-2.674-16.366,1.856-7.578,6.578-6.253,14.329-7.139,21.86a9.963,9.963,0,0,0,4.183,9.721c2.033,1.543,3.055,3.94,4.775,6.286-6.817,6.713-15.641,12.978-7.569,22.863-3.117.974-5.455,1.7-6,1.87-10.561-3.7-19.564-7.19-28.925-9.906-2.5-.725-6.4.448-9.092,1.579-3.915,1.643-7.193,4.224-11,6.073-4.945,2.4-6.656,1.913-10.5-1.749-1.433-1.365-3.413-3.428-5.079-3.392-7.22.149-10.337-4.374-14.342-7.574a6.861,6.861,0,0,1-1.881-6.478c2.526-8.8.609-17.366-.985-26.013-.269-1.472-.1-3.549,1.012-4.537,10.418-9.273,8.519-19.464,2.419-29.15-6.208-9.849-13.724-19.229-21.463-28.4-4.613-5.462-10.642-10.191-16.232-15.1-3.449-3.037-7.552-3.591-12.917-2.837-8.385,1.173-17.056,1.031-25.584,1.65-6.118.441-12.192,1.259-18.292,1.821-2.3.213-4.8.647-6.933.178-3.6-.789-6.781-.263-9.146,1.607-2.938,2.325-6.091,2.581-9.791,2.148a15.884,15.884,0,0,0-4.461.071,69.334,69.334,0,0,1-28.907-1.223,26.919,26.919,0,0,0-18.821,2.752c-7.444,3.94-11.117,3.911-18.292-.491-4.56-2.8-8.94-5.9-4.721-11.464-2.8-1.465-5.133-2.894-7.695-3.975-8.1-3.435-16.474-6.493-24.357-10.2-3.216-1.515-6.163-2.283-9.137-.9-12.245,5.7-26.283,7.567-39.182,11.812-1.926.633-3.744,1.486-5.688,2.077-9.755,2.987-14.225,8.662-14.53,16.882-.09,2.482-1.55,4.978-2.7,7.375-1.684,3.513-4.927,4.957-9.8,4.686-4.748-.27-9.54-.085-14.306.078-8.313.284-11.144,1.941-11.036,8.463.107,6.841-3.834,12.1-7.767,18.063-2.965-3.136-6.36-5.618-7.973-8.7-2.41-4.6-6.369-4.722-11.538-4.5-10.409.455-20.854.761-31.263.533-6.468-.142-12.864-1.636-19.349-2.077-10.355-.718-20.738-1.344-31.12-1.458-5.679-.064-10.642-.953-14.834-3.933-6.521-4.637-14.145-6.379-22.807-6.891-7.345-.441-14.539-2.283-21.839-3.357-3.44-.5-7.023-1.18-10.427-.9q-22.184,1.856-44.288,4.3c-6.172.676-12.487,1.422-18.283,3.122-9.236,2.709-18.659,2.795-28.209,2.823-3.574.014-7.148.213-10.723.313-5.975.171-11.18,1.3-13.67,6.308-1.648,3.307-5.231,4.445-9.343,4.494-10.427.128-16.76,5.341-22.484,11.279-8.644,8.967-17.889,16.939-33.78,17.039-5.491.036-10.588,4.871-11.556,10.361-1.926,10.952-10.7,17.032-22.977,20.424-2.687.74-6.073-.107-9.28-.228,1.657-7.218-1.182-12.417-8.277-15.183-7.758-3.029-15.641-6.315-24.285-1.173-1.209.718-4.094.391-5.733-.235a12.87,12.87,0,0,0-10.23.242c-10.776,4.587-21.311,9.43-30.045,16.392-5.563,4.43-9.612,9.238-11.35,15.659-2.705,9.992-10.535,16.776-23.559,19.208-4.031.754-8.008,1.7-12.335,2.631.564,3.108,3.512,2.944,5.993,2.759,9.558-.718,18.982-1.842,26.614-7.154a13.143,13.143,0,0,1,3.037-.939c5.59,6.912,12.622.327,18.839.789,4.739,3.463,2.661,6.934.358,9.878-2.105,2.7-5.912,2.98-9.612,1.792-11.35-3.62-22.377-.235-33.368,1.2-8.232,1.074-8.627,8.391-13.1,12.545-1.433,1.337.125,4.7.331,7.3,6.369-.811,11.591-1.444,16.8-2.148,7.776-1.045,12.684,2.219,15.5,7.289,6.387,11.506,15.112,38.245,10.964,54.459-15.721-13.085-30.251-26.469-42.765-41.836-3.682,3.961-2.759,8.022-1.774,11.769,1.622,6.187,4.022,12.253,6.02,18.383,1.935,5.952,3.762,11.933,5.679,17.885,1.29,4,.5,7.815-.466,11.862-2.042,8.562-2.992,17.295-4.461,25.949-1.111,6.55-2.257,13.1-3.538,19.627-.546,2.781-.726,2.759-7,3.99a100.177,100.177,0,0,1-1.2-10.4q-.5-35.809-.735-71.626a26.546,26.546,0,0,1,.5-6.365,43.4,43.4,0,0,0-.788-21.86c-.744-2.731-1.38-5.76-.654-8.413,2.123-7.773,1.541-15.432.726-23.261-.806-7.751.009-15.6-.215-23.4-.376-13.249-1.245-26.49-1.505-39.746q-1.2-59.64-2.033-119.294c-.224-16.527-.591-33.082.242-49.588.627-12.338-1.281-24.513-1.586-36.773-.394-15.851.475-31.731-.412-47.554-.69-12.274-1.272-24.442.537-36.688.5-3.385-1.586-6.955-1.586-10.44,0-8.7.546-17.409.815-26.12a14.483,14.483,0,0,0-.412-3.442A33.34,33.34,0,0,1-588.2-114.9c1.218-4.224-1.084-9.039-1.442-13.611-.5-6.343-.744-12.708-.95-19.059-.3-9.209-.484-18.426-.726-27.635q-.806-29.793-1.621-59.579Q-594-273.1-595.075-311.419c-.054-2.141.143-4.281.224-6.422h-19.7V1382.495h17.907c-.027-18.945-.161-37.89-.063-56.834.188-36.24.287-72.487.824-108.726.591-39.547,1.657-79.086,2.481-118.625.206-9.949.233-19.9.421-29.846.045-2.276.412-4.551.591-6.358,4.228.718,7.722,1.707,11.269,1.842,20.756.825,41.61.761,62.249,2.425,11.941.96,24,1.913,35.939,4.3,12.228,2.439,25.458,1.678,38.233,2.432,3.816.228,7.578,1.024,11.4,1.245,9.486.533,18.982.917,28.486,1.3,12.138.491,24.276.989,36.414,1.365,8.94.277,17.88.519,26.82.512,10.732-.014,21.463-.292,32.186-.5,19.385-.391,38.465-2.873,57.564-5.291,10.57-1.337,21.266-2.027,31.89-3.072a31.875,31.875,0,0,0,6.942-1.138c14.987-5.078,31.129-6.407,46.823-9.145,18.588-3.236,37.543-5.163,55.665-10.041,9.908,1.515,16.931-4.317,25.467-6.308,8.573-2,17.414-3.563,25.539-6.393,18.238-6.336,37.292-11.428,54.1-20.118,14.655-7.581,31.218-10.155,47.916-12.616,3.8-.562,7.65-.846,11.484-1.252,6.477-.676,12.917-1.557,19.466-.092,2.051.462,4.345.22,7.139.327-.842-3.847-3.95-4.267-6.772-4.345a98.47,98.47,0,0,0-14.279.363c-11.171,1.337-22.278,3.065-33.413,4.6a31.488,31.488,0,0,1-4.273-.263c2.786-1.934,4.434-3.442,6.477-4.437,15.99-7.808,31.854-15.816,48.212-23.1a96.023,96.023,0,0,1,21.777-6.265c14.808-2.645,29.812-4.622,44.763-6.742a395.45,395.45,0,0,0,75.157-17.828c11.986-4.182,24.491-7.431,36.8-11.008,5.437-1.579,11.018-1.543,17.531-.349-1.093,1.742-1.854,3.136-2.8,4.438-14.915,20.353-38.671,33.8-60.35,48.919-17.414,12.146-37.838,19.378-59.579,24.932-14.127,3.605-27.9,8.086-42.084,11.52-12.147,2.944-24.643,4.971-38.277,7.652,2.15-4.309,5.5-6.258,9.128-7.531,13.876-4.885,27.716-9.878,41.9-14.159,18.328-5.533,37-10.34,55.45-15.631a109.377,109.377,0,0,0,15.148-5.483c2.535-1.152,4.264-3.421,6.091-4.964-2.284-3.449-5.079-2.816-7.623-2.29-18.731,3.861-37.561,7.46-56.122,11.784-23.3,5.426-43.9,15.695-65.635,23.944a180.016,180.016,0,0,1-20.039,5.8,180.556,180.556,0,0,1-20.576,4.31,43.034,43.034,0,0,1-13.088-.825A13.46,13.46,0,0,0,3.4,1027.039q-11.569,7.755-23.183,15.482c-5.572,3.7-5.859,4.388-3.3,10.212,4.748-1.984,9.782-3.492,13.912-5.952,5.312-3.165,10.185-3.364,15.909-.555-.278,2.7-3.18,3.008-5.545,3.627-10.758,2.837-21.58,5.518-32.32,8.406s-21.607,5.518-32.034,9c-20.971,6.983-43.142,9.039-65.393,10.845-18.561,1.508-37.158,2.7-55.745,4.011a37.372,37.372,0,0,1-4.461.121c-9-.4-17.773.1-26.435,2.56-6.656,1.892-13.7,2.923-20.532,4.409a22.315,22.315,0,0,0-3.825,1.785,26.018,26.018,0,0,0,13.688,1.671c19.663-2.838,39.218.249,58.809.7,8.035.185,16.044.946,24.079,1.337,18.077.889,35.975,3.52,54.312,1.351,23.273-2.752,46.7-4.715,70.1-6.706,17.19-1.465,34.434-2.532,51.669-3.584,17.2-1.052,34.542-1.131,51.607-2.944,25.414-2.709,50.281-7.673,75.094-12.914a386.442,386.442,0,0,1,50.165-6.671,207.074,207.074,0,0,0,49.77-10.1c4.336-1.437,8.671-2.887,14.96-4.978-2.41,4.438-5.6,5.867-8.77,7.225-18.623,7.979-37.489,15.631-55.853,23.98-12.371,5.625-24.052,12.189-36.029,18.362-4.963,2.56-9.916,5.134-14.781,7.815-1.093.6-1.783,1.671-2.947,2.809,4.246,1.707,7.139-.27,9.719-1.33,20.236-8.313,40.293-16.9,60.457-25.331,26.892-11.229,53.864-22.344,80.738-33.6,8.143-3.413,16.026-7.225,24.142-10.674,14.127-6,28.71-11.385,42.4-17.949,9.083-4.359,17.065-10.212,25.342-15.588,11.269-7.325,22.26-14.912,33.556-22.209,2.4-1.55,5.59-2.34,9.28-3.833.959-4.914,5.133-9.423,10.2-13.5,2.3-1.849,4.891-3.492,7.068-5.426A93.047,93.047,0,0,1,484,943a54.107,54.107,0,0,0,9.173-5.469c3.323-2.318,6.924-3.854,11.359-3.072q14.377,2.549,28.648,5.44c1.29.256,2.338,1.273,4.165,2.325-1.487,1.785-2.428,3.52-4,4.736-20.111,15.574-36.665,33.587-55.02,50.356a196.739,196.739,0,0,1-20.326,15.88c-22.4,15.581-43.751,32.2-69.54,44.468-10.714,5.092-20.979,10.788-31.836,15.667-6.441,2.894-13.535,4.928-20.5,6.983-10.866,3.214-21.714,6.614-32.876,9.01-10.561,2.268-21.535,3.321-32.311,4.964a24.086,24.086,0,0,0-5.106,1.259c-18.1,7.076-37.283,7.645-56.838,6.215-2.777-.206-5.572-.235-8.358-.349-.116.5-.233,1-.358,1.508q7.175,1.568,14.342,3.136c.1.484.2.96.3,1.444a59.5,59.5,0,0,1-7.462,2.923c-19.94,4.985-40.1,9.636-61.12,10.048-21.436.427-42.864-.519-63.4-6.372-4.855-1.387-9.594-2.268-14.816-.924a17.061,17.061,0,0,1-7-.263,199.164,199.164,0,0,0-35.16-3.968c-11.278-.178-22.493-2.226-33.78-2.6-18.1-.59-36.235-.484-54.357-.612-.681-.007-1.362.626-1.792,1.771,1.209-.156,2.419-.306,3.655-.427,2.007.135,3.986.242,5.966.341-.224.548-.457,1.1-.681,1.643C-56.856,1108.4-58.647,1107.69-60.43,1106.978Zm429.9-204.1c5.151-.242,9.486-4.914,15.354-1.166q-7.78.544-15.569,1.1c-4.273,4.985-10.821,6.962-17.8,8.1-1.227.2-2.9-1.33-4.9-2.318C354.018,904.09,362.116,904.538,369.471,902.881Zm41.565,12.267c-7.068.263-14.171.3-21.2.853-8.618.683-17.172,1.8-25.754,2.731a40.022,40.022,0,0,1,11.43-6.927c7.758-3.193,16.312-2.83,24.455-1.885,3.87.448,7.256,3.485,10.911,5.319l9.46,1.557c4.318.612,9.218.405,12.837,2.013,8.035,3.563,16.115,2.674,24.357,1.657,10.248-1.273,19.179.647,26.936,6.045-5.733,8.846-6.853,8.989-17.065,5.6a27.128,27.128,0,0,0-12.075-1.209c-15.748,2.6-24.007-6.962-34.6-12.758-.349-.192-.269-.889-.412-1.351Q415.667,915.966,411.036,915.148ZM1379.7,1135.908c-23.828-14.116-47.88-28-67.749-45.84-1.9-1.707-4.819-2.709-7.31-3.99-6.253-3.214-13.07-5.9-18.659-9.714-6.727-4.587-14.252-7.68-22.3-10.255-.188-.057-.663.455-1,.7,1.586,1.515,3.171,3.036,4.793,4.587-13.294,4.942-25.817,9.714-37.023,16.527-5.384,3.271-11.457,6.393-17.853,7.915-8.671,2.062-16.133,5.575-23.461,9.394-5.643,2.937-9.074,3.364-13.177-.412-6.02-5.54-9.236-11.976-7.677-19.514a48.192,48.192,0,0,0,1-7.026c.654-11.741-4.058-22.87-6.432-34.263a7.036,7.036,0,0,0-2.464-3.684c-6.235-5.078-12.165-10.5-19.125-14.877-6.853-4.31-10.633-9.2-10.857-16.143-.224-6.863-2.49-13.17-6.727-19.45-6.593-9.771-15.793-17-27.331-22.835-11.583-5.86-23.73-9.608-37.758-7.972-.591.071-1.191.05-1.783.078-3.727.171-8.439-.69-10.938.789-3,1.778-4.228,5.518-6.029,8.484-.762,1.259-.762,2.823-1.577,4.061a33.153,33.153,0,0,1-5.115,6.6c-2.911,2.667-6.109,2.61-9.253.057-4.774-3.883-9.146-8.086-14.064-11.855-6.4-4.9-12.559-10.233-19.932-14.016-6.244-3.2-11.905-6.123-14.252-11.961-1.971-4.9-6.889-6.713-12.675-7.858-11.789-2.333-23.7-1.252-35.581-1a8.853,8.853,0,0,0-4.219.9c-6.566,4.3-14.709,7.019-19.143,13.433-4.7,6.813-9.988,8.128-19.206,5.518A32.324,32.324,0,0,1,876.2,948.6c-6.665-4.345-13.249-8.8-19.376-13.611-2.553-2-3.861-5-6.047-7.972,7.856-1.429,14.4-3.044,21.1-3.733,8.241-.846,16.617-.811,24.912-1.365,11.215-.747,18.22-5.547,20.326-14.216,1.057-4.374,1.218-8.889,1.8-13.334.287-2.2.582-4.388,1-7.567,4.551,1.785,7.749,2.937,10.821,4.267,3.135,1.351,5.948,3.371,9.262,4.231,12.147,3.157,24.213,6.343,36.145,10.084,8.125,2.546,13.634,6.13,18.418,11.407a87.619,87.619,0,0,0,11.3,10.888,19.249,19.249,0,0,0,9.253,3.542c18.292,1.721,36.522,4.21,55.109,2.574,7.462-.654,14.817-.9,21.168-4.672,1.845-1.1,4.452-2.4,6.4-2.148,6.065.782,10.2-1.387,13.706-4.857,5.455,1.948,8.223,4.715,9.522,9.088,1.272,4.3,3.8,8.391,6.154,12.438,2.741,4.722,5.823,9.323,8.886,13.917a38.331,38.331,0,0,0,4.64,5.981c8.5,8.534,13.1,18.618,12.129,29.043-1.218,13.184,9.128,20.146,19.833,26.433,6.145,3.605,11.663,7.19,15.587,12.175,6.925,8.811,12.971,18.006,22.422,25.509,3.565,2.837,6.584,4.43,11.529,3.734,3.61-.5,6.942-.4,9.594,2.361s6.19,2.233,9.612.6c4.972-2.375,8.689-5.369,11.018-9.849,3.046-5.874,7.229-6.6,13.509-2.738,3.5,2.148,6.718,1.771,9.925.285a8.136,8.136,0,0,1,9.549,1.294c4.076,3.428,8.3,6.756,12.183,10.326s7.5,7.36,11.1,11.122c7.014,7.325,14.565,14.386,20.711,22.152,6.047,7.652,14.754,12.893,23.022,18.575,8.51,5.846,17.549,11.2,26.094,17.01,1.138.775.753,2.951,1.12,4.43,3.037-1.97,5.948-1.949,8.626.405q10.817,9.5,21.589,19.037l-.645.448Q1394.434,1145.9,1379.7,1135.908ZM171.348,259.684A18.56,18.56,0,0,1,182.16,255.4c-2.983,4.046-5.581,6.948-7.39,10.134-4.613,8.135-10.526,16.114-12.828,24.677-2.553,9.522-1.227,19.585-2.974,29.448-1.29,7.3.815,15.09,2.266,22.564,3.664,18.874,10.373,37.072,18.507,55.078A156.854,156.854,0,0,0,211.417,443.8c4.515,4.566,7.865,9.864,12.183,15.382-3.288,1-5.679,1.877-8.17,2.468-7.4,1.756-7.175,1.55-12.022-2.916-7.766-7.154-16.16-13.881-23.8-21.114q-17.414-16.513-34.067-33.53c-3.314-3.385-5.411-7.524-8.376-11.741-3.252,3-2.965,6.279-1.5,9.295a111.37,111.37,0,0,0,7.543,12.829c7.39,11.08,15.506,21.875,22.305,33.182,5.079,8.441,10.051,17.238,7.31,27.891-11.807,3.534-23.945,7.168-35.9,10.745-21.974-35.457-38.483-72.735-48.758-111.82a22.646,22.646,0,0,0-.215,9.7c3.906,16.207,7.292,32.471,12.908,48.436,4.792,13.633,7.784,27.713,10.687,41.708,1.478,7.154,1.254,14.564,1.263,21.86a7.343,7.343,0,0,1-3.332,5.412c-3.628,2.254-7.964,3.8-12,5.632-1.173-1.252-1.953-1.749-2.159-2.361A27.367,27.367,0,0,1,93.88,499.3c-2.41-22.387-7.417-44.6-6.539-67.21.314-7.993.206-16.143-1.362-24.008-3.073-15.361-7.292-30.572-11.126-45.833a23.453,23.453,0,0,0-2.105-4.31c-.269,5.284.529,10.39.645,15.5.385,16.762.322,33.53.8,50.292.529,18.227,1.693,36.439,2.141,54.665.233,9.458.1,18.98-3.825,28.118C68.968,514.748,62.787,521,52.2,524.227c-6.656,2.034-13.079,4.523-19.645,6.742-2.714.917-5.652,1.451-8.268,2.51-4.64,1.885-8.519-1.166-12.631-1-6.763.27-9.388-2.553-11.61-6.919-5.679-11.186-11.923-22.188-17.629-33.367-5.366-10.511-10.266-21.164-15.479-31.724-3.7-7.474-6.79-15.247-11.672-22.209a30.722,30.722,0,0,1-5.545-13.206c-.806-5.156-1.093-10.361-1.4-15.553-.914-15.588-1.5-31.191-2.652-46.765-.636-8.662-2.06-17.281-3.27-25.914-.143-1.045-1.182-2.005-1.81-3.008a71.4,71.4,0,0,0-1.5,19.371c.564,13.654-2.463,27.194-.941,40.947,1.451,13.156.752,26.462,1,39.7.242,12.758.528,25.509.726,38.266.17,11.08.537,22.159.314,33.232-.412,20.332-1.174,40.663-1.89,60.994a26.424,26.424,0,0,1-1.317,6.3c-1.612,5.568-5.491,7.972-12.559,7.922-5.07-.036-10.185.228-15.211-.2a44.463,44.463,0,0,0-23.8,4.7c-8.626,4.182-12.281,3.072-16.321-4.4-.941-1.735-1.577-3.57-2.383-5.355q-3.937-8.683-7.9-17.352c-5.16-11.336-10.723-22.564-15.354-34.028-4.909-12.132-9.164-24.442-13.258-36.759-3.494-10.511-6.4-21.156-5.912-32.158.134-3.051.86-6.116.609-9.138-1.406-16.577-.923-33.054,2.607-49.474,1.9-8.847,3.108-17.786,4.551-26.7.493-3.051.493-6.166,1.191-9.181,4.81-20.708,9.6-41.424,17.764-61.514,5.581-13.725,9.934-27.791,19.385-40.386,8.949-11.94,21.257-21.583,33.091-31.575A8.9,8.9,0,0,1-93.9,226.2a12.2,12.2,0,0,1,3.386,10.084A85.221,85.221,0,0,1-93.144,250.3c-5.473,18.184-11.609,36.247-16.778,54.48a143.758,143.758,0,0,0-4.389,59.85c1.917,13.633,2.356,27.393,4.1,41.047,1.254,9.807,1.729,19.67,5.733,29.271,9.074,21.761,17.361,43.735,25.942,65.631,1.353,3.449,2.616,6.927,3.915,10.39l1.72-.363c-2.275-7.758-4.6-15.51-6.826-23.276-2.84-9.9-5.9-19.763-8.3-29.726-2.177-9.046-3.6-18.212-5.366-27.322-1.129-5.853-2.884-11.67-3.288-17.551-1.46-21.263-2.947-42.54-3.44-63.832-.224-9.878,1.9-19.784,2.795-29.683.9-10.041,5-19.443,8.886-28.9,5.384-13.106,11.735-25.814,22.359-36.929,2.508-2.631,4.363-5.646,6.763-8.356,7.453-8.413,12.013-18.5,23.524-24.57,4.855-2.56,8.94-6.052,13.509-9.216,3.413.32,6.808.64,10.158.953-1.818,8.015-3.485,15.453-5.2,22.884-3.87,16.7-8.564,33.331-11.386,50.15-1.872,11.193-1.792,22.692-1.326,34.021.591,14.166,2.481,28.3,3.789,42.455a50.648,50.648,0,0,1,.394,7.076c-.555,10.66-.6,21.3,2.553,31.745,2.831,9.373,4.855,18.859,8.483,28.133C-9.352,442.624-5.6,457-.439,471.034c4.569,12.4,9.988,24.613,15.193,36.866,2.1,4.935,7.157,7.566,12.855,7.062-2.329-7.545-4.569-15.1-7.014-22.621-4.407-13.519-9.146-26.966-13.365-40.521C2.213,435.684,1.89,419.036-.277,402.609c-2.858-21.654-4.569-43.4-6.7-65.112a63.51,63.51,0,0,1-.179-9.231c.537-10.646.672-21.327,1.98-31.916a268.941,268.941,0,0,1,6.271-35.109,123.6,123.6,0,0,1,22-44.7c2.168-2.8,3.5-6.016,5.769-8.761,7.82-9.451,16-18.717,23.765-28.2,2.419-2.951,3.762-7.2,9.137-6.635,5.16.54,5.7,5.014,7.462,8.178a6.174,6.174,0,0,1,.9,3.456c-.851,8.477-.788,17.131-3.037,25.381-5.115,18.724-11.538,37.221-17.154,55.86-2.7,8.953-6.521,18-6.718,27.045-.3,14.2-2.589,28.225-3.494,42.348-.726,11.328-1.254,22.778.009,34.042,1.63,14.55,5.008,28.979,7.874,43.429,2.078,10.475,4.533,20.9,6.916,31.333.1.412,1.147.69,3.449,2-1.666-10.212-3.261-19.073-4.533-27.955a336.852,336.852,0,0,1-3.207-63.05c1.415-31.077,4.819-61.9,17-91.723C75.068,244.1,84.142,225.378,99,208.787a58.531,58.531,0,0,1,4.757-4.324,11.582,11.582,0,0,1,1.819.391,27.355,27.355,0,0,1,2.858,1.685c10.848,7.922,24.231,6.606,37.265,6.343a14.232,14.232,0,0,0,4.882-1.55c7.614-3.214,15.264-6.372,22.735-9.771,4.255-1.934,7.659-1.9,11.323,1.984-5.231,4.018-10.239,8.007-15.443,11.833-6.548,4.814-13.939,9.031-19.761,14.337-16.16,14.721-29.275,31.006-37.1,49.7-2.911,6.962-6.271,13.839-8.519,20.929-2.446,7.737-3.968,15.673-5.6,23.56-.376,1.835.421,3.819.788,6.55,1.236-1.429,2.016-1.941,2.168-2.56,3.592-14.4,8.143-28.467,16.133-41.907,5.2-8.761,10.2-17.515,17.719-25.117,4.721-4.779,10.526-8.889,15.811-13.32,7.758-6.514,14.987-13.5,23.389-19.443a60.628,60.628,0,0,1,23.219-10.3c2.9-.576,6.056-1.735,9.7.548-9.03,5.853-17.325,11.5-25.987,16.776-13.3,8.107-25.736,16.7-33.306,29-6.262,10.176-14.36,19.777-19.215,30.337-7.041,15.3-12.022,31.212-17.584,46.928-1.406,3.982-1.675,8.214-2.472,12.331,9.451-20.794,18.3-41.573,29.893-61.549,6.763-11.656,14.046-22.991,28.648-29.911-.439-.533-1.4-1.387-1.227-1.565,5.07-5.383,10.526-10.432,19.34-12.388Q178.313,253.977,171.348,259.684Zm73.177,344.369c1.344,9.928,6.262,17.871,11.529,25.758.967,1.458,1.433,3.89.564,5.234-5.876,9.01-11.959,17.942-18.426,26.7-3.449,4.665-8.017,8.8-11.663,13.384-5.249,6.592-10.176,13.348-15.112,20.1a47.469,47.469,0,0,0-4.685,7.574c-6.387,13.512-12.792,27.023-18.821,40.642-2.75,6.208-4.694,12.644-6.862,19.009-1.63,4.772-2.616,9.707-4.613,14.379-5.975,13.96-14.5,26.945-24.419,39.4A349.706,349.706,0,0,1,98.4,870.133c-17.325,14.031-34.309,28.332-51.768,42.249-10.1,8.043-20.684,15.723-31.416,23.233a25.325,25.325,0,0,1-11.009,4.253c-9.988,1.124-20.119,1.479-30.2,2.027-2.9.156-6.074.384-8.3-3.286,2.956-3.421,5.841-7.559,9.684-11.03,10.033-9.053,20.567-17.764,30.762-26.71,10-8.775,20.236-17.4,29.606-26.59,10.122-9.927,19.448-20.367,28.934-30.693,7.184-7.823,14.261-15.709,21.006-23.773,3.619-4.324,6.28-9.138,9.63-13.611,9.916-13.277,17.253-27.5,24.482-41.758,1.147-2.254,1.55-4.75,2.293-7.133-2.741.4-4.139,1.237-4.882,2.347-7.05,10.44-14.369,20.716-24.473,29.576a61.879,61.879,0,0,0-5.661,6.379c-6.414,7.4-12.514,15-19.286,22.188-15.7,16.648-35.948,30.138-51.786,46.75C5.232,875.865-6.8,886.432-17.736,897.668A364.906,364.906,0,0,1-63.18,937.727c-3.4,2.5-6.862,4.551-11.565,4.885-22.26,1.579-44.512,4.245-66.79,4.423-35.026.285-69.433,3.9-103.769,8.676-2.732.377-5.572.313-8.358.455-.314-.633-.627-1.266-.941-1.906,18.131-6.258,35.249-13.654,48.991-25.032,13.437-11.136,28.1-21.491,35.572-36.41a22.465,22.465,0,0,0-6.629,3.15c-18.749,12.537-38.259,24.271-60.063,33.253-19.824,8.164-39.97,15.851-60.224,23.333-16.859,6.23-34.452,10.347-53.389,10.312-20.558-.036-41.117.434-61.684.64-3.081.029-6.28.135-9.469-2.219,2.678-.853,4.586-1.422,6.459-2.069,16.088-5.526,32.356-10.767,48.2-16.712,9.943-3.734,19.26-8.52,28.845-12.85,13.2-5.966,26.444-11.869,37.856-19.99,15.614-11.108,31.4-22.045,37.176-39.063.609-1.785,2.051-3.421,3.27-5.042,9.039-12.033,16.16-24.783,22.771-37.74,11.995-23.51,24.921-46.637,43.231-67.6,3.225-3.691,6.038-7.7,9.881-10.944,14.3-12.054,28.531-24.186,43.58-35.635A285.79,285.79,0,0,0-103.186,680c9.334-10.105,17.4-20.943,26.542-31.169a235.907,235.907,0,0,1,19.107-18.717c3.834-3.4,5.3-2.866,8.779.932,1.308,1.422,3.144,3.122,5.088,3.477,6.871,1.245,13.867,2.148,20.872,2.823a106.223,106.223,0,0,0,14.118.3c2.437-.092,5.348-.512,7.157-1.657,9.639-6.1,17.979-13.341,24.1-21.775C31.631,601.735,44.369,595,62.608,593.613c17.36-1.316,29.848-8.832,36.127-22.074,4.676-9.871,14.154-15.659,26.193-18.632,11.753-2.909,24.115-.6,36.181-1.287.331-.021.726.619,1.406,1.23-1.084.754-2.141,1.529-3.252,2.254q-23.555,15.286-47.11,30.565c-14.288,9.3-28.755,18.44-42.738,28.026-9,6.18-17.316,13-25.853,19.6-10.669,8.249-21.651,16.285-31.756,24.961-7.453,6.4-14.36,13.377-17.513,22.038-4.99,13.732-14.673,25.3-26.265,35.948-17.54,16.122-34.6,32.627-56.319,45.5a44.612,44.612,0,0,0-3.9,2.93c-15.39,11.542-30.26,23.517-47.8,33.153-5.644,3.093-10.1,7.552-15.094,11.385a12.9,12.9,0,0,0,7.041.384c14.512-3.456,26.99-9.757,38.537-17.4,15.318-10.141,30.081-20.908,46.286-30.06,16.805-9.494,30.556-21.156,43.33-33.644Q.955,708.114,20.344,686.8a378.32,378.32,0,0,1,46.295-43.2,152.446,152.446,0,0,0,13.473-11.364,137.847,137.847,0,0,1,26.112-20.253c12.568-7.574,24.616-15.681,36.9-23.546,7.39-4.736,14.619-9.65,22.287-14.095,5.24-3.037,6.28-2.574,9.719,1.913,6.127,7.993,12.478,10.084,22.959,6.322,9.54-3.428,19.242-2.9,30.126-3.193-4.586,3.193-8.322,5.54-11.69,8.192-15.865,12.516-31.8,24.99-47.343,37.762a108.425,108.425,0,0,0-14.315,14.479c-7.56,9.074-14.539,18.454-21.777,27.692-4.56,5.817-9.737,11.392-13.571,17.494-4.9,7.8-8.841,15.994-13,24.086-8.85,17.238-23.416,31.169-39.5,44.389-13.75,11.3-29.561,20.538-44.879,30.33-12.075,7.716-23.344,16.15-36.907,22.337-10.579,4.829-20.666,10.326-31.174,15.254-13.571,6.372-27.035,12.95-41.09,18.589-24.867,9.97-47.379,22.828-70.463,35-3.619,1.906-6.79,4.352-10.167,6.55.358.448.717.9,1.084,1.344,10.114-2.546,20.352-4.814,30.3-7.723,8.931-2.6,17.593-5.8,26.265-8.918,16.518-5.945,33.27-11.542,49.34-18.184,18.194-7.517,35.984-15.709,53.5-24.2,14.736-7.14,29.292-14.628,43.061-22.863,15.255-9.124,27.958-20.417,40.508-31.93,14.171-13,25.691-27.144,36.539-41.915,15.614-21.249,31.586-42.384,48.83-62.8a227.056,227.056,0,0,1,64.954-53.115C231.966,608.391,238.156,606.592,244.525,604.053Zm-117.689-89.7c-.152-.491-.3-.981-.448-1.472,3.7-1.394,7.856-2.325,11.018-4.267,7.256-4.459,14.324-9.167,20.944-14.209,9.916-7.559,22.278-10.674,35.115-13.035,12.192-2.247,24.383-4.608,36.71-6.23,12.245-1.607,24.186-5.013,37.014-3.776,9.442.91,19.009.917,28.5,1.486,9.182.548,18.391,1.01,27.492,2.041,14.118,1.607,28.1,4.025,42.246,5.4a57.081,57.081,0,0,1,23.694,7.36,90.23,90.23,0,0,0,51.768,12.552c13.956-.775,27.976-.9,41.968-1.244a68.541,68.541,0,0,1,9.827.228c13.213,1.628,26.48,3.129,39.558,5.312,8.08,1.351,16.42,3,23.658,6.009,16.9,7.026,33.422,14.024,53.076,15.631,10.006.818,19.994,1.9,30.081,2.546,20.773,1.33,40.723,4.117,54.088,19.4,6.718,7.687,14.449,15.026,24.581,20.374,6.181,3.257,12.308,6.607,18.131,10.248,16.214,10.112,31.774,20.808,42.944,34.81,10,12.53,15,25.758,7.4,40.421-1.236,2.382-1.738,4.992-2.589,7.5-1.586,4.715-3.18,5.7-9.406,5.81-14.4.249-21.8,5.483-23.219,16.861-.331,2.7-1.29,4.7-4.488,5.483-8.582,2.1-17.423,4-26.327,2.311-8.08-1.536-15.847-4.1-23.712-6.308-4-1.124-7.614-3.705-6.4-6.8,2.687-6.841-.3-12.153-4.694-17.565-.887-1.088-.52-2.781-.958-4.146-.43-1.344-.663-3.086-1.828-3.876-7.632-5.177-12.846-12.552-22.717-15.752-1.63-.526-3.718-2.212-3.771-3.414-.349-7.751-7.677-8.47-14.557-10.134-7.784,7.837-7.587,16.37-5.581,25.1a4.991,4.991,0,0,0,2.455,2.823c5.8,3,6.844,7.986,9.209,12.544-2.67,1.643-5.169,2.909-7.265,4.5a26.13,26.13,0,0,1-24.393,3.776c-6.253-2.219-12.693-4.21-18.624-6.891-6.127-2.773-11.9-5.732-14.539-11.848-1.6-3.719-5.93-7.026-9.926-9.679-4.273-2.837-9.558-4.722-14.449-6.948-7.731-3.506-8.008-4.281-5.357-11.321,1.774-4.708,3.27-9.487,4.551-14.294.591-2.2.376-4.53.529-6.87-4.192-2.525-8.8-3.271-14.172-3.2-8.644.114-16.053,3.2-24.043,4.864-8.143,1.693-9.648,6.073-10.938,11.208a11.664,11.664,0,0,0-.09,3.534c.412,7.559-2.643,10.347-12.192,10.624a71.784,71.784,0,0,1-27.77-4.459c-6.163-2.34-12.174-4.942-18.435-7.09-7.068-2.432-14.333-4.509-21.535-6.692-3.3-1-6.593-2.034-9.979-2.788-4.515-1-8.358-2.2-9.056-6.642-.269-1.707-1.72-3.485-3.2-4.843-8.313-7.595-18.624-11.926-31.389-13.462-11.914-1.429-22.9,3.172-25.817,12.239-.744,2.29-1.648,4.551-2.329,6.855-2.222,7.567,2.723,12.3,12.532,12.061,4.255-.1,8.4-.028,9.845,4.075-2.687,2.773-5.581,5.12-9.943,3.271-12.362-5.241-23.9-11.442-33.028-20.054-10.32-9.743-20.281-19.727-30.914-29.249-4.255-3.812-10.714-6.08-12.846-12.836a30.983,30.983,0,0,0,3.709-1.877c5.885-3.833,5.876-7.787,2.186-12.9-4.819-6.678-12.72-8.9-21.051-10.425a21.714,21.714,0,0,0-11.1,1.088c-5.455,2.212-10.23,5.469-15.927,8.64-1.89-.74-4.228-1.714-6.629-2.589-4.174-1.529-9.845-2.155-12.183-4.722-2.428-2.667-1.8-7.161-2.248-10.873-.484-4.046-3.189-5.483-8.17-5.931-3.986-.356-8.9-1.131-11.484-3.214-10.5-8.448-22.565-9.551-36.19-6.692-3.019.633-6.36.313-9.558.391-2.06.05-4.13-.064-6.19.043C140.954,513.5,133.895,513.944,126.836,514.357Zm-307.231,125.09c-9.988,9.01-21.1,14.841-32.3,20.4a155.312,155.312,0,0,0-44,32.862c-8.94,9.423-17.172,19.258-25.682,28.936-1.362,1.543-2.446,3.243-3.78,4.8-3.655,4.3-6.907,8.875-11.153,12.772-7.982,7.332-16.886,14.038-24.769,21.434-7.865,7.382-14.718,15.446-22.422,22.941-10.741,10.44-21.75,20.716-32.893,30.892-3.879,3.541-9.137,6.18-12.7,9.871-13.231,13.711-29.525,24.712-47.45,34.184q-33.848,17.889-68.43,34.881c-6.718,3.293-14.476,5.476-22.09,7.311-9.155,2.212-17.441,4.772-21.66,12.338-.923,1.65-3.028,2.88-4.569,4.324-6.683,6.23-14.189,11.705-18.561,19.649-2.831,5.149-9.979,8.8-15.193,13.12l-1.854-.7c-.125-2-.385-4-.34-6q1.008-46.157,2.069-92.32c.394-17.757.6-35.514,1.156-53.264.26-8.37.537-8.349,10.427-10.568,2-.448,3.977-1,5.9-1.614,18.785-6.023,37.659-11.883,56.283-18.205,9-3.058,17.62-6.877,26.238-10.61,6.244-2.7,12.022-6.094,18.319-8.7,7.113-2.951,14.888-4.942,21.813-8.121,10.275-4.708,20.872-9.33,29.9-15.339,27.143-18.07,53.6-36.759,81.938-53.734,11.556-6.927,23.971-12.189,36.441-17.693,17.074-7.531,35.2-9.643,54.375-8.5,18.158,1.081,36.28.69,54.061-2.994C-188.215,641.139-185.124,640.456-180.395,639.447ZM1424.492,1156.3c-12.317-8.178-19.251-18.383-26.274-28.517-2.625-3.79-5.706-6.478-11.878-5.8-1.872.206-4.067-.576-5.9-1.259-5.124-1.9-10.149-3.975-15.2-5.995-8.689-3.47-15.927-8.278-21.383-14.714-1.5-1.764-3.01-3.52-4.649-5.205-7.435-7.645-15.246-15.083-22.287-22.948a143.349,143.349,0,0,0-26.731-23.66c-5.581-3.762-11.251-7.3-18.946-4.765-5.966-6.72-6.226-6.727-14.127-2.254-4.828,2.731-9.917,5.191-14.62,8.043-3.341,2.034-6.342,1.678-10,.668a35.575,35.575,0,0,0-11.179-1.572c-4.345.249-7.48-.434-10.015-3.257-7.435-8.278-15.085-16.427-22.4-24.769a38.135,38.135,0,0,0-14.825-10.909c-6.289-2.546-10.8-6.55-10.633-12.836.323-11.528-5.661-21.668-12.111-31.482-6.915-10.525-13.58-21.149-16.805-32.713-2.5-8.932-8.205-15.517-17.217-20.758-4.542-2.645-7.391-3.257-10.83.2C1101.3,917,1095,919.565,1087,920.141a16.5,16.5,0,0,0-1.675.484c-7.785,1.493-15.489,3.62-23.389,4.331-16.554,1.493-32.607-1.508-48.525-4.786a11.293,11.293,0,0,1-8.2-6.08c-4.891-9.458-14.261-14.863-25.835-18.3-7.211-2.141-14.351-5.362-21.777-5.9-13.338-.96-24.16-5.952-35.249-10.88-.52-.227-1.075-.42-1.621-.6-6.656-2.148-10.131-.932-11.914,4.487-.672,2.027-.331,4.245-.762,6.336-1.021,4.871-2.051,9.75-3.413,14.564-1.308,4.615-5.393,7.289-10.983,8.42-6.351,1.287-12.792,2.283-19.152,3.541a65.383,65.383,0,0,1-29.83-1.259c-11.108-2.916-22.744-4.679-34.3-2.311-4.918,1.01-8.653.676-12.541-1.394-5.294-2.816-10.839-3.1-17.083-2.148a142.308,142.308,0,0,0-27.026,7c-10.723,3.862-23.344,3.442-33.682,8.64-.869.434-2.32.164-3.511.178-8.376.107-14.037-2.944-17.235-9.615,11.574-.59,22.968,1.33,34.336-1.024,5.572-1.152,10.785-2.247,15.515-4.893,14.342-8.029,28.522-16.271,43.258-23.816,11.224-5.739,23.434-10.255,34.8-15.844,10.973-5.4,22.619-9.4,34.551-13.213,15.99-5.1,31.2-4.978,46.572,1.273,16.877,6.862,34.425,6.571,52.225,2.432,4-.932,8.107-1.543,12.174-2.254,4.291-.754,8.725-1.138,12.846-2.261,4.488-1.223,8.689-3.1,13-4.715,18.319-6.87,37.391-9.593,57.4-6.08a55.37,55.37,0,0,1,13.2,3.947c5.079,2.318,9.612,5.4,14.333,8.192,3.538,2.1,6.9,4.395,10.535,6.372,5.366,2.923,10.526,6.386,16.447,8.292,15.7,5.056,31.738,9.458,47.71,13.967a57.524,57.524,0,0,0,9.621,1.508c10.051,1.038,20.155,1.792,30.179,2.987,11.592,1.387,20.29,7.8,22.243,16.2,1.675,7.2,2.759,14.486,4.64,21.64,2.374,9.017,4.2,18.262,8.214,26.838,8.671,18.518,20.272,35.841,38.609,49.737,9.648,7.311,19.277,14.628,29.051,21.832a19.365,19.365,0,0,0,6.127,2.852c9.576,2.667,17.092,7.5,23.864,13.348,2.58,2.226,5.957,3.869,8.931,5.817,2.92,1.92,6.217,3.605,8.582,5.9a61.616,61.616,0,0,1,15.865,25.786c4.022,12.267,10.328,23.674,23.577,31.823,6.109,3.755,11.807,7.936,17.513,12.089,1.7,1.237,3.977,3.037,3.915,4.516-.179,4.1,3.323,6.379,5.7,9.273,2.436,2.98,4.766,6.009,7.2,9C1424.4,1149.241,1425.728,1152.242,1424.492,1156.3ZM-567.494,966.258c-.51-.562-1.012-1.131-1.523-1.693,1.344-.555,2.947-.9,3.986-1.7,9.146-7.119,19.045-13.775,27.062-21.633,10.535-10.319,23.488-18.042,37.184-25.182,16.931-8.825,34.345-17.082,51.051-26.156,13.5-7.332,26.112-15.681,39.424-23.247a111.258,111.258,0,0,0,25.754-20.516,88.7,88.7,0,0,1,8.071-7.567c13.921-11.364,27.51-22.892,39.881-35.436,13.025-13.206,27.868-25.281,41.941-37.833q14.861-13.259,29.812-26.461c5.366-4.75,11.162-9.224,16.106-14.23,11.206-11.343,21.356-23.382,33.144-34.32a465.9,465.9,0,0,1,38.949-32.243c14.324-10.646,29.911-20.225,44.763-30.437,3.341-2.3,6.432-3.2,10.49-1.636,7.113,2.738,14.252,5.426,22.126,8.413-2.338,3.2-4.04,5.639-5.876,8.015-4.515,5.853-10.015,11.357-13.428,17.586-5.33,9.728-13.034,18.042-21.356,26.092q-20.679,20.011-41.753,39.774c-5.178,4.871-10.606,9.6-16.214,14.166-8.949,7.275-17.307,15.268-27.465,21.313-14.1,8.391-24.509,18.454-30.359,31.525-1.675,3.741-2.383,7.766-4.237,11.435-3.314,6.55-6.978,13-10.848,19.357-10.866,17.85-17.513,37.363-33.324,53.264a8.39,8.39,0,0,0-1.272,1.87c-6.521,11.67-16.214,21.491-28.173,29.9-9.146,6.436-18.57,12.616-27.77,18.995-14.422,10.006-31.442,16.335-49.3,21.064-17.5,4.637-35.644,7.787-53.112,12.5-12.174,3.285-24.813,1.593-36.952,3.862C-523.036,962.837-545.234,965.767-567.494,966.258ZM321.492,637.989c.582,3.9,1.29,7.567,1.648,11.257.34,3.527-.242,7.161.564,10.6,2.051,8.7.018,16.854-3.87,24.933-3.279,6.82-6.441,13.682-9.379,20.6-3.709,8.726-6.477,17.743-10.821,26.255-11.3,22.138-23.094,44.119-35.008,66.058-9.907,18.241-20.63,36.2-30.3,54.516-8.367,15.851-19.573,30.344-32.732,43.771-7.793,7.958-17.7,14.642-26.928,21.683-3.091,2.361-7,4.053-11.43,6.564.5,4.21-3.924,6.379-9.325,7.865a81.332,81.332,0,0,1-27.241,2.29c-13.652-.939-27.331-1.621-41-2.4a17.6,17.6,0,0,0-2.669.036c-12.013,1.209-24.016,2.453-36.038,3.627a25.663,25.663,0,0,1-4.1-.249c.287-.932.242-1.515.582-1.785,16.232-12.886,32.383-25.843,48.8-38.572,17.54-13.59,34.551-27.656,47.62-44.1,15.237-19.179,29.937-38.736,42.98-58.9,14.01-21.64,27.313-43.614,38.25-66.435,6.36-13.277,13.562-26.469,25.055-37.5,15.175-14.564,31.487-28.367,46.949-42.747,4.64-4.317,10.158-6.336,16.868-6.912C313.466,638.152,317.013,638.159,321.492,637.989Zm-505.685,343.2c.17.356.349.711.52,1.067a31.363,31.363,0,0,1-5.446,1.778q-19.349,2.741-38.752,5.213a35.687,35.687,0,0,1-8.877.156c-6.154-.789-12.21-2.027-18.319-3.015a45.07,45.07,0,0,0-21.015,1.451,227.294,227.294,0,0,1-25.476,6.635c-16.187,3.029-32.276,6.123-49.358,5.454-12.989-.512-26.13,1.259-39.2,2.069q-32.517,2.027-65.017,4.132c-17.217,1.1-34.551,1.593-51.634,3.485-22.081,2.446-43.966,6.009-65.922,9.131a26.193,26.193,0,0,0-3.771,1.1c2.472.747,4.864.156,6.9.6,14.055,3.079,29.068-.718,42.891,3.833a5.612,5.612,0,0,0,1.774.093c7.74-.228,15.479-.413,23.21-.725,9.209-.377,18.409-1.074,27.617-1.266,9.522-.2,19.054.142,28.585.078,13.079-.092,26.148-.526,39.218-.441,5.724.043,11.439,1.017,17.155,1.572.045.59.081,1.181.125,1.771-3.583.455-7.166,1.273-10.759,1.308-14.01.128-28.02-.021-42.031-.007-31.9.043-63.789.227-95.51,3.392-1.371.135-2.634.967-3.951,1.479a297.744,297.744,0,0,0,34.972,1.87c14.61.071,29.221-.142,43.831-.135,9.818.007,19.645.327,29.463.213,6.19-.071,12.38-1.088,18.552-.981,22.045.405,44.1.782,66.1,1.785,24.688,1.124,49.314,3.129,74,4.324,22.126,1.074,44.01-1.678,65.895-3.684,15.04-1.38,29.92-4.21,45.22-2.027,4.291.612,7.274-.782,8.877-5.12-8.806-.839-16.859-2.027-24.966-2.276-11.3-.355-22.655.142-33.978-.014-9.818-.142-19.627-.69-29.445-1.067-7.435-.284-14.969-.043-22.278-.953-20.872-2.589-41.753-5.035-62.867-6.03-2.311-.107-4.56-1-6.844-1.529a37.319,37.319,0,0,1,11.762-2.638c6.5-.6,13.1-.761,19.51-1.693,11.7-1.707,23.228-4.11,34.945-5.732,18.8-2.6,37.74-4.551,56.516-7.254,12.165-1.749,25.055-2.2,34.882-9.586,1.182-.889,3.288-1.017,4.99-1.444q10.642-2.635,21.3-5.227a26.88,26.88,0,0,1,5.151-1.045c7.435-.32,14.888-.405,22.323-.725q39.222-1.685,78.445-3.477c23.192-1.081,46.375-2.276,69.567-3.371.376-.014.788.541,2.338,1.671-1.129.441-2.248.782-3.243,1.273C10.114,983.4-3.224,990.593-17.27,996.787c-15.623,6.884-31.837,12.914-47.88,19.179-4.524,1.764-9.3,3.129-14.037,4.509-17.038,4.957-35.491,5.867-52.332,11.428a12.366,12.366,0,0,1-1.747.277c-17.19,2.894-34.4,5.725-51.562,8.712-16.366,2.852-32.8,4.871-49.645,3.968-12.478-.668-24.984-1.721-37.462-1.564-30.968.4-61.917,1.358-92.876,2.169-26.892.7-53.586-.839-80.281-3.442-17.145-1.671-34.425-2.752-51.687-3.257-13.07-.384-26.2.576-39.316.91-15.193.384-30.385.9-45.587,1.052-9.746.1-10.973-.967-10.785-8.555.376-15.154.994-30.309,1.532-45.456a17.428,17.428,0,0,1,.394-3.534c.591-2.368,2.445-3.726,5.536-3.883,8.6-.441,17.19-.981,25.8-1.259,8.9-.284,17.826-.37,26.739-.4,4.434-.014,8.868.2,13.294.434,12.129.654,24.24,1.657,36.378,1.963,6.763.171,13.58-1.131,20.37-1.152,19.654-.057,39.334-.156,58.97.441,19.027.576,38.017,2.852,57.017,2.83,25.27-.036,50.532-1.7,75.811-2.411,8.609-.242,17.387-.4,25.862.6,13.706,1.614,27.331,1.245,41.036.86C-197.208,981.036-190.7,981.185-184.193,981.185Zm511.839-82.243c1.442-2.752,2.132-4.182,2.929-5.575,1.935-3.414,4.837-6.67,5.706-10.24a162.59,162.59,0,0,0,4.345-25.231c.869-10.888,1.63-21.711,5.2-32.336,5.527-16.427,10.32-33.018,16.187-49.36a275.826,275.826,0,0,1,13.948-32.058c2.75-5.4,7.605-10.134,11.636-15.1,10.454-12.872,22.968-24.3,39.469-32.4a366.894,366.894,0,0,1,61.487-24.065c9.531-2.709,20.72-3.1,29.113,6.471,4.13,4.715,3.422,6.343-2.643,9.5-13.419,7-27.277,13.64-39.666,21.683-13.571,8.811-25.27,19.165-34.148,31.553-7.973,11.122-17.334,21.562-19.681,34.675-.493,2.773-2.338,5.383-3.117,8.143-3.574,12.665-8.546,25.16-8.537,38.309a87.8,87.8,0,0,0,1.182,17c1.792,9.06,4.228,18.063,6.889,26.988,1.021,3.414,3.816,6.215,9.307,7.211-.582-6.663-.869-12.772-1.693-18.838-3.108-23.02-3.037-45.961,5-68.355,3.735-10.4,7.713-21.306,15-30.216,20.254-24.769,49.967-40.791,83.846-52.169,1.353-.455,3.064-.242,5.429-.4-.726,1.614-.833,2.645-1.523,3.257-8.17,7.2-16.348,14.393-24.67,21.484-7.91,6.742-16.563,12.993-23.864,20.118-10.114,9.878-13.043,22.372-14.951,34.4-2.069,13.064-1.818,26.483-.914,39.682a52.317,52.317,0,0,0,6.969,23.19c6.127,10.162,14.53,19.5,22.493,28.908a85.844,85.844,0,0,0,16.106,15.062c7.292,5.142,13.132,11.57,19.663,17.394,4.586,4.089,2.347,7.7-4.8,7.887-5.24.135-10.526-1.116-15.811-1.536-2.293-.185-4.649.164-9.021.37-4.712-4.189-10.328-9.615-16.518-14.578a103.08,103.08,0,0,1-21.347-23.524c-10.606-15.9-14.807-33.367-19.322-50.733-1.281-4.914-1.559-10-2.293-15.005a11.323,11.323,0,0,0-3.153,6.564c-1.657,8.875-2.669,17.864-5.052,26.611-1.81,6.628-1.63,13.085-1.174,19.72.555,8.029.475,16.079.6,24.122a13.98,13.98,0,0,1-4.613,10.752c-5.679-1.664-10.678-3.129-15.685-4.587a107.944,107.944,0,0,0-43.858-3.755c-11.726,1.479-23.147,4.452-34.694,6.8C334.687,897.277,331.973,897.953,327.646,898.941ZM-148.5,229.19c-.627,2.5-.842,4.871-1.827,7.019-2.867,6.2-5.814,12.4-9.164,18.447-6.109,11.03-13.347,21.747-13.329,34.27a8.491,8.491,0,0,1-.7,2.781,158.69,158.69,0,0,0-9.119,43.3c-1.3,19.115-1.433,38.281-2.293,57.41-.69,15.361-1.845,30.707-2.535,46.068-.708,15.773-2.213,31.56-1.093,47.319.842,11.812,3.037,23.56,8.833,34.654a23.421,23.421,0,0,1,1.541,4.075c4.282,14.244,8.806,28.453,12.693,42.775a119.772,119.772,0,0,1,3.332,20.31c.3,3.221-.7,6.592-1.711,9.771a6.614,6.614,0,0,1-3.7,3.6,145.424,145.424,0,0,1-15.847,4.814c-6.53,1.55-10.239-.263-13.464-5.284a134.3,134.3,0,0,1-13.688-27.663c-2.669-7.488-6.629-14.685-9.424-22.145-4.38-11.727-9.056-23.411-11.072-35.614-.224-1.365-1.111-2.66-2.374-5.54a32.973,32.973,0,0,0-.618,3.8c.367,15.674,4.363,30.949,8.277,46.21,3.081,12.032,6.378,24.058,10.445,35.9,3.01,8.754-.17,15.6-7.157,22.109-4.273,3.975-9.039,6.038-15.667,4.53-6.029-1.372-8.313-5.021-9.262-9.472-2.195-10.262-4.712-20.488-6.432-30.8-2.535-15.233-4.577-30.494-4.13-45.947.618-21.512-1.308-43.017,1.63-64.543,3.279-23.994,5.187-48.109,14.2-71.377,2.714-7,5.2-14.066,7.686-21.128,4.237-12.068,8.107-24.221,12.658-36.211,4.542-11.968,10.382-23.638,14.512-35.685,7.166-20.908,18.426-40.464,30.063-59.906a42.516,42.516,0,0,1,17.441-16.769C-156.71,228.706-153.646,227.376-148.5,229.19ZM14.557,1075.105c1.765-.676,3.485-1.429,5.285-2.02,10.454-3.428,21.15-6.457,31.344-10.312,15.6-5.888,30.6-12.779,46.339-18.4,11.359-4.053,23.255-8.583,35.339-9.558,15.658-1.259,28.692-7.773,43.491-10.24a12.518,12.518,0,0,0,4.667-2.055q12.994-8.64,25.835-17.437c3.368-2.311,6.557-4.8,9.737-7.275,11.036-8.583,24.813-14.656,34.7-24.349,4.47-4.381,10.149-7.993,15.363-11.883,9.316-6.948,18.65-13.853,25.978-22.3,3.986-4.587,9.173-5.924,15.309-3.833,12.469,4.245,24.966,2.958,37.57.832,4.891-.825,9.746-1.749,14.637-2.553,6.1-1,12.317-1.664,18.31-2.966,8.582-1.863,16.948-4.338,25.512-6.251,9.1-2.027,12.237.64,10.427,8.008-4.515,18.333-15.623,34.049-30.108,48.45a24.569,24.569,0,0,1-4.434,3.5c-11.8,7.211-23.506,14.514-35.536,21.469a62.3,62.3,0,0,1-33.4,8.591c-10.185-.249-18.919,2.823-26.883,8.128a71.208,71.208,0,0,1-18.373,8.527c-17.181,5.248-34.506,10.3-52.126,14.486-11.314,2.681-23.264,3.677-34.927,5.44-6.145.932-12.38,1.586-18.391,2.9-20.075,4.395-39.979,9.288-60.117,13.455a138.822,138.822,0,0,1-31.415,3.186c2.768-1.23,3.7-1.735,4.721-2.084,10.633-3.7,21.248-7.424,31.926-11.037,2.634-.889,5.446-1.429,5.545-4.651-16.053,5.042-31.183,10.589-46.94,14.521C48.015,1071.365,31.837,1075.141,14.557,1075.105ZM-400.4,527.741c.233.007.475.021.708.028-.618,7.311-1.657,14.614-1.72,21.924-.063,7.14-3.879,12.729-9.46,17.85a13.3,13.3,0,0,1-17.871.469,16.186,16.186,0,0,1-4.99-6.571c-3.565-9.764-7.892-19.5-9.71-29.5-4.524-24.8-9.11-49.673-8.349-74.855a312.6,312.6,0,0,1,2.428-32.584c1.371-10.07,3.959-20.04,6.154-30.031,1.577-7.218,3.323-14.415,5.088-21.6,3.816-15.553,7.7-31.091,11.52-46.644.9-3.669,3.494-6.137,7.077-8.626,5.258-3.648,10.956-7.652,13.867-12.488,3.735-6.208,8.367-9.707,16.948-10.816,7.892-1.017,14.1-3.876,16.76-10.98,2.669-7.133,1.7-13.362-2.768-19.578-4.282-5.945-6.4-12.544-4.739-19.108,1.406-5.511,5.133-10.653,7.955-15.922.287-.533,1.46-.768,2.213-1.145a84.222,84.222,0,0,1,8.376-4.053c2.016-.74,4.766-1.493,6.62-.967,4.694,1.323,7.175-.021,9.585-3.044,1.353-1.685,3.718-2.909,5.778-4.182,4.237-2.6,10.185-3.421,12.962-1.607,3.852,2.5,4.909,5.725,3.1,9.529-4.3,9.053-7.767,18.411-12.9,27.151-15.7,26.717-25.8,54.95-35.617,83.182-8.08,23.226-14.252,46.878-20.675,70.446-2.768,10.148-5.267,20.516-5.742,30.842C-399.237,465.807-399.613,496.778-400.4,527.741ZM-571.471,689.6c4.273-1.316,8.922-2.148,12.765-4.018,26.713-13.007,54.948-23.589,83.8-33.139,15.927-5.27,32.052-10.226,49.161-12.758,17.844-2.645,35.59-5.718,53.506-8a35.112,35.112,0,0,1,15.479,1.614,52.182,52.182,0,0,0,25.1,2.674,57.982,57.982,0,0,1,6.459-.036c-1.693,4.971-5.24,8.377-9.1,11.584-7.345,6.1-14.655,12.239-22.26,18.141-3.162,2.453-7.211,4.182-10.543,6.514-13.652,9.558-28.513,17.722-43.894,25.438-13.562,6.8-27.268,13.391-39.585,21.775-24.679,16.8-52.789,26.469-86.229,23.176-4.667-.462-9.37-.768-13.965-1.515-11.3-1.828-20.048-7.979-30.287-11.627-3.288-1.173-4.228-3.826-4.094-6.621.17-3.549.412-7.09.475-10.639.206-11.833.439-23.66.439-35.493,0-4.487,1.971-7.808,7.113-9.778,2.938-1.124,5.841-2.34,8.9-3.221,6.987-2.027,14.01-4.025,21.114-5.76,5.581-1.365,11.314-2.318,16.975-3.449.3.5.6,1,.9,1.486-7.381,5.369-14.942,10.6-22.1,16.15C-558.339,677.507-567.736,681.077-571.471,689.6ZM-260.317,206.91c-.994,5.383-1.371,9.629-2.6,13.718-4.264,14.145-12.917,26.924-21.168,39.689-8.7,13.469-16.483,27.023-21.866,41.623-7.543,20.431-15.022,40.819-19.51,61.848-3.574,16.726-9.612,33.111-8.68,50.406.573,10.61-.833,21.27-.833,31.909,0,15.56.412,31.127.752,46.686.224,9.928-.636,20.019,1.308,29.747,2.634,13.2,2.92,26.348,2.714,39.589a31.079,31.079,0,0,1-1.111,7.716c-3.7,13.625-7.435,15.723-25.064,14.785-5.231-.277-9.28-1.764-11.377-5.7-3.583-6.727-7.883-13.305-10.337-20.289-3.341-9.487-5.249-19.293-7.7-28.979-.152-.6-.009-1.643.475-1.892,4.192-2.126,3.216-5.59,2.84-8.37-2.66-19.663-.69-39.29,1.3-58.818,2.141-20.957,6.2-41.787,9.4-62.673,1.039-6.806,1.03-13.817,3.18-20.388,6.011-18.3,12.685-36.481,19.51-54.608,5.106-13.561,10.66-27.03,16.375-40.443,4.577-10.745,8.824-21.668,14.772-31.937a105.311,105.311,0,0,1,31.084-34.149C-279.693,211.39-271.783,207.408-260.317,206.91Zm44.494,22.835c.788.455,1.568.91,2.356,1.365-2.544,6.948-4.3,14.152-7.793,20.78-8.358,15.908-17.665,31.511-26.345,47.312-10.508,19.137-18.9,38.786-23.909,59.366-4.524,18.589-9.415,37.114-8.967,56.166.179,7.815.95,15.617,1.451,23.425a4.769,4.769,0,0,0,2.257-3.371c2.678-18.07,4.524-36.247,8.152-54.2,4.837-23.916,15.139-46.722,25.512-69.407a147.668,147.668,0,0,1,27.537-41.26c3.261-3.406,5.832-7.545,12.8-9.408a38.6,38.6,0,0,1-2.141,5.27c-2.732,4.466-6.038,8.74-8.385,13.327-8.277,16.214-16.474,32.456-24.213,48.834a118.9,118.9,0,0,0-7.65,21.071c-4.775,18.547-8.9,37.207-13.437,55.8-1.353,5.561-3.816,10.98-4.712,16.577q-3.991,24.982-7.068,50.05c-2.051,16.7-3.968,33.416-5.222,50.157-.6,7.993.878,16.065.7,24.093-.367,17.274-1.156,34.547-1.89,51.814-.108,2.475.17,5.277-3.619,6.806-8.68-3.236-14.2-8.939-17.2-15.659A286.614,286.614,0,0,1-309.6,556.762c-6.145-19.8-9.934-39.859-9.4-60.376.251-9.444-.887-18.909-1.084-28.367-.269-12.53-1.1-25.117-.09-37.591a345.513,345.513,0,0,1,6.387-41.531c2.795-13.526,5.787-27.13,10.544-40.279,9.737-26.924,23.327-52.575,42.882-76.149a330.941,330.941,0,0,1,37.193-38.089C-221.09,232.568-218.287,231.281-215.823,229.745Zm423.7,696.576c-.26-.6-.529-1.195-.788-1.785a21.416,21.416,0,0,1,2.338-2.887c6.924-6.159,14.36-12,20.8-18.461,11.206-11.257,24.59-21.128,33-34.192,4.873-7.567,10.642-14.692,12.675-23.233,1.326-5.575,3.314-11.044,4.784-16.6,4.282-16.193,8.259-32.442,12.729-48.6,2.678-9.686,6.065-19.2,12.093-28.062a336.218,336.218,0,0,1,36.163-44.638c8.868-9.181,17.692-18.39,26.775-27.436,2.347-2.333,5.518-4.189,8.5-6.073,3.664-2.318,7.9-4.132,11.206-6.713,5.276-4.125,11.3-6.4,18.471-7.972,11.144-2.446,19.027,3.364,30.4,5.362-3.225,1.892-4.81,3.285-6.781,3.9-7.722,2.4-13.652,6.436-19.116,11.328a153.436,153.436,0,0,1-16.295,12.075c-12.631,8.541-23.255,18.4-30.161,30.373-8.806,15.247-16.859,30.771-25.154,46.2-3.153,5.867-4.936,12.452-9.442,17.537-4.972,5.6-3.968,11.777-5.867,17.608-4.551,13.96-9.755,27.9-12.353,42.114a204.818,204.818,0,0,1-15.327,48.009,64.747,64.747,0,0,1-8.859,13.818,15.986,15.986,0,0,1-8.2,4.95q-23.971,5.451-48.238,10.07C223.555,924.479,215.663,925.24,207.879,926.32ZM-463.089,498.762c-7.614-4.594-8.331-5.6-9.755-11.72a34.735,34.735,0,0,0-2.221-5.262,63.164,63.164,0,0,1-3.3-7.951c-2.365-8.69-4.461-17.423-6.736-26.412-4.094.676-5.07,2.553-4.578,5.213.645,3.513,1.406,7.012,1.989,10.532,2.033,12.409,3.422,24.819,8.223,36.944,4.954,12.53,2.965,25.309-2.732,37.634-1.5,3.257-3.744,6.059-8.671,6.272s-7.623-2.325-9.451-5.5c-5.536-9.572-9.719-19.307-6.566-30.138a47.53,47.53,0,0,0,2.016-11.933c.34-13.718.681-27.443.331-41.161-.546-21.754-1.541-43.493-2.553-65.24-.842-17.978-2.186-35.934-2.884-53.912a39.386,39.386,0,0,1,5.554-22.735,19.856,19.856,0,0,0,2.195-5.291c2.589-9.543,2.392-19.215,2.033-28.894-.278-7.552,5.034-12.9,10.821-18.618,3.646,2.717,7.489,4.4,9.03,6.969,2.84,4.715,6.951,8.135,12.2,10.973,2.768,1.5,3.556,3.435,2.768,6.144-2.849,9.856-.2,19.13,4.909,28.2a25.756,25.756,0,0,1,3.556,10.184,85.2,85.2,0,0,1-.322,18.319c-1.353,9.778-.233,19.8-5.384,29.256-2.177,4-2.732,8.683-3.171,13.106-1.191,12.011-2.177,24.044-2.732,36.076a144.444,144.444,0,0,0,.726,19.869c1.406,15.282,3.207,30.543,4.649,45.826C-462.758,489.716-463.089,493.954-463.089,498.762Zm877.323,579.288c2.428-2.489,4.031-4.338,5.9-6,7.516-6.7,15.5-13.1,22.592-20.061,7.462-7.325,13.921-15.3,21.185-22.764,7.462-7.673,15.936-14.756,22.95-22.657,10.158-11.435,20.72-22.486,33.915-31.845,5.993-4.253,11.744-8.719,17.513-13.163,7.05-5.433,14.449-10.646,20.9-16.505,9.2-8.349,16.357-9.927,28.594-5.156,3.207,1.252,6.8,2.055,9.63,3.7,3.538,2.055,6.718,2.005,10.83,1.3,7.973-1.365,15.6.306,23.291,2.553-1.218,4.693-4.99,7.1-8.17,9.849-4.819,4.167-9.567,8.377-14.315,12.594-9.5,8.441-18.041,17.523-30.2,23.987-14.593,7.758-29.194,15.659-42.649,24.584a666.064,666.064,0,0,1-62.526,36.631q-20.6,10.646-41.7,20.694C427.33,1078.014,422.314,1080.709,414.234,1078.049ZM27.519,143.64c.1-.74.206-1.479.3-2.219,10.194-2.325,20.361-4.694,30.591-6.905a8.408,8.408,0,0,1,4.273.476c4.846,1.806,9.486,3.961,14.386,5.661,3.968,1.372,5.437,3.57,4.568,6.742-1,3.677.878,6.016,4.094,8.676,8.232,6.777,18.892,6.23,29,6.379,7.587.114,15.336-1.188,22.789-2.61,7.937-1.515,14.592-.7,20.514,3.911,2.9,2.261,5.8,2.411,9.469.22,3.189-1.906,7.5-3.989,11.126-3.8,7.928.42,15.748,2.2,23.6,3.492,5.2.853,10.436,2.738,15.542,2.539,7.829-.313,13.258,1.6,17.011,7.119-2.428,2.048-7.265,3.989-3.359,7.3,3.95,3.357,6.53,8.014,13.034,9.323,1.962.4,3.547,1.991,6.217,3.577-6.5.868-10.821,2.617-13.231,6.919,4.228,2.987,7.775,6.315,14.127,6.727,2.141.142,4.228,2.261,6.047,3.705,2.087,1.664,3.673,3.726,5.8,5.362,5.24,4.025,5.007,3.869,2.41,8.839a196.652,196.652,0,0,0-9.2,19.912c-.985,2.539-.206,5.547-.009,8.327.2,2.681.681,5.348,1.111,8.505-4.542.732-8.089,2.1-11.269,1.685-14.351-1.87-23.864-14.884-20.827-26.262,1.111-4.153.224-9.167-1.756-13.163-1.63-3.293-4.156-6.087-3.279-9.892.233-1.01-.439-2.261-1.075-3.257-1.7-2.667-3.78-5.2-5.411-7.894-2.849-4.722-5.42-9.408-12.622-11.208-2.705-.676-5.016-2.525-7.3-4.032a47.134,47.134,0,0,0-26.041-7.943c-5.446-.078-10.615-1.173-14.458-4.658-2.132-1.934-4.452-2.475-7.919-1.813a85.1,85.1,0,0,1-14.118,1.038c-8.223.149-16.456.043-24.679.043-.107.526-.206,1.052-.313,1.579,16.608,3.314,34.981,1.316,51.186,9.231-2.876,2.141-4.667,4.388-7.175,5.149-5.446,1.65-8.367,4.665-11.072,8.562-3.341,4.807-10.033,6.144-16.223,2.809-8.053-4.338-16.492-8.882-22.52-14.777-8.376-8.178-17.656-14.429-30.278-17.771-3.816-1.01-8.044-2.752-10.4-5.191-5.437-5.632-12.6-9.316-19.761-13.163C36.074,148.547,31.828,146.065,27.519,143.64ZM-583.717,647.362c.564-14.009.914-26.255,1.729-38.48.116-1.771,2.051-4.139,4-5.028,4.873-2.212,10.051-4.544,15.453-5.348a273.636,273.636,0,0,1,34.515-3.392c26.193-.5,52.431-.64,78.615.007,10.66.263,21.615,1.735,29.14,9.643,4.425,4.651,4.855,6.585-1.836,9.046-9.7,3.57-19.412,7.232-29.5,9.984-13.231,3.613-26.766,6.592-40.3,9.444-8.609,1.813-17.45,2.951-26.2,4.31-4.936.761-9.988,1.138-14.87,2.077-7.811,1.5-15.426,3.684-23.291,4.9C-564.619,645.818-573.182,646.309-583.717,647.362Zm429.91-434.841c-3.44,1.237-4.712,2.013-6.065,2.119-5.661.441-11.108.8-15.345,4.637-1.2,1.081-4.479.939-6.817.967-8.17.092-13.186-4.437-17.307-8.882a82.365,82.365,0,0,0-17.4-14.713c-10.956-6.784-22.117-7.9-35.106-6.109-6.271.868-11.744,3.435-17.558,4.31-14.539,2.2-29.507,4.146-44.261,1.593-11.072-1.913-18.418,4.1-27.492,6.379-4.434,6.23-12.855,5.127-19.8,6.514-1.657.334-4.6-1.052-5.76-2.333-.779-.853-.072-3.321,1.03-4.359,5.581-5.262,11.341-10.447,20.845-11.236,5.581-.462,9.845-2.816,13.974-5.8a21.912,21.912,0,0,1,9.988-4c14.1-1.394,28.325-1.394,42.264-4.544,11.412-2.581,23.407-3.541,35.16-5.127a64,64,0,0,1,11.493-.981c9.218.441,18.453,1.038,27.564,2.169a73.978,73.978,0,0,1,16.017,3.89c11.574,4.21,22.538,9.7,36.127,8.583,2.016-.164,4.112.484,6.19.633,6.521.462,13.052,1.209,19.582,1.223,8.949.021,16.42,2.333,22,7.83,5.213,5.127,11.851,7.595,19.985,8.064,5.644.327,11.287.825,16.895,1.444,2.374.263,3.861,1.358,2.938,2.6-6.853,1.138-12.774,2.141-18.7,3.093-1.747.284-3.521.42-5.285.647-7.193.932-13.885-.292-20.827-1.977-9.621-2.333-20.03-2.773-29.409-5.518a182.48,182.48,0,0,0-41.762-6.7c-3.512-.192-6.96-1.152-10.427-1.828-4.443-.868-8.824-2.119-14.458-1.486,4,4.31,7.9,6.955,14.118,6.379a6.294,6.294,0,0,1,2.4.043c6.781,2.333,13.526,4.722,20.272,7.118C-164.413,208.681-160.123,210.245-153.807,212.521Zm-228.033,2.795c-1.63,4.381-2.7,6.983-3.556,9.629-1.989,6.144-5.4,12.3-5.455,18.475-.072,9.707,3.753,19.13,9.012,27.941,4.363,7.311,4.676,7.275-3.6,11.769a31.581,31.581,0,0,0-3.592,2.1c-4.04,2.944-8.976,3.541-14.109,3.264-10.794-.583-16.545,1.749-19.9,9.714-2.463,5.831-6.432,8.327-14.27,8.235-12.317-.142-18.722-5.753-15.2-15.062,2.141-5.646,1.111-10.112-3.736-14.308-1.406-1.216-2.544-2.638-3.968-3.84-3.2-2.7-5.151-5.447-3.959-9.529,1.03-3.534-.412-7-3.807-9.785-5.16-4.253-10.087-8.69-15.327-12.879-3.664-2.93-7.095-2.887-10.911.05-1.666,1.28-2.643,3.1-4.1,4.566-1.227,1.23-2.454,2.951-4.1,3.342-6.468,1.55-10.884,4.537-13.464,9.536-.86,1.664-2.768,3.093-4.515,4.345-4.255,3.037-6.468,2.93-12.882-.5,4.318-6.237,6.468-13.647,16.3-16.74,2.114-.668,3.592-2.51,5.635-3.435,6.118-2.781,11.95-6.137,19.457-6.336,6.181-.164,12.353-.569,18.534-.782a30.957,30.957,0,0,1,5.321.292c6.754.932,7.256,1.657,8.313,7.147a10.247,10.247,0,0,0,3.583,5.213c2,1.685,5.222,2.51,7.014,4.274,8.429,8.306,15.417-1.33,23.192-1.116,2.007.057,4.174-2.034,6.118-3.285.609-.4.708-1.28,1.093-1.92,3.476-5.76,7.534-11.35,10.32-17.309C-403.967,218.871-393.253,218.729-381.841,215.316ZM-2.355,569.5c.009-.583.018-1.159.036-1.742,3.592-2.411,7.784-4.437,10.66-7.3,8.277-8.242,19.582-12.865,31.29-16.776,8.4-2.8,17.611-4.018,25.315-8.278,2.66-1.472,5.581-3.421,8.555-3.634,12.263-.889,22.78-8.669,36.011-5.675,1.129.256,2.714-.789,4.1-1.195,4.13-1.209,8.25-3.357,12.389-3.371,6.056-.021,12.147,1.422,18.185,2.375,6.9,1.081,13.482,1.01,19.493-2.4,4.506-2.553,10.024-4.544,14.933-2.8a65.983,65.983,0,0,1,18.418,9.714c3.933,3.086,7.677,5.7,12.846,7.111a16.984,16.984,0,0,1,3.261,1.671c-.161.512-.322,1.017-.484,1.529-2.714-.327-5.464-.54-8.143-1-9.012-1.529-17.916-3.712-27.026-4.587C165.472,532,153.414,531,141.59,535.421c-6.262,2.34-13.625,2.8-20.576,4.132.125.732.349,2,.672,3.826-4.1.761-7.767,1.828-11.5,2.048-9.934.59-15.282,3.776-18.713,11.535a10.3,10.3,0,0,1-3.028,4.224c-5.85,4.3-11.69,8.655-18.014,12.495-5.85,3.549-11.941,7.1-18.57,9.536-14.718,5.412-30.117,4.7-45.435,1.429-4.542-.967-8.967-2.29-14.6-3.741a33.139,33.139,0,0,1,3.189-1.138c11.932-2.034,23.909-3.911,35.787-6.123,4.291-.8,9.531-1.486,12.263-3.776,5.93-4.992,13.616-7.51,20.478-11.151,2.338-1.237,4.658-2.489,7-3.734l-.994-1.643c-2.32.647-4.676,1.216-6.942,1.956-4.667,1.515-9.164,3.449-13.965,4.622q-21.284,5.206-42.774,9.856C3.342,570.3.395,569.613-2.355,569.5Zm275.851-.782c2.8,2.781,4.685,5.646,7.632,7.36,5.482,3.172,9.746,7.076,14.333,10.959,7.632,6.464,13.177,14.23,21.92,20.047,10.409,6.919,19.134,15.446,29.57,22.344,11.081,7.332,24.419,7.161,33.548-2.5a32.735,32.735,0,0,1,3.314-2.461c2.266,4.63,3.279,8.975,6.262,12.168,3.126,3.349,8.143,5.59,12.254,8.271-4.156,2.1-8.107,4.75-12.667,6.2-4.846,1.543-10.436,3.044-15.381,2.56a29.794,29.794,0,0,0-15.99,2.631c-5.751,2.532-11.941,4.743-17.584,4.743-1.478-7.154-1.048-14.287-4.533-19.876-6.145-9.849-14.171-19.357-27.689-23.944-6.933-2.354-11.869-6.094-16.617-10.333-.985-.882-1.666-2.112-2.867-2.688a31.038,31.038,0,0,0-5.294-1.472c-.3,1.529-1.4,3.328-.744,4.53a81.153,81.153,0,0,0,6.387,9.167c1.738,2.354,3.574,4.665,5.912,7.709-5.025.754-8.806,1.885-12.452,1.664-2.428-.149-6.145-1.892-6.736-3.506-3.565-9.707-6.387-19.585-9.46-29.4,4.371-9.92-2.589-16.619-10.4-23.091-.17-.142-.125-.448-.269-1.081Zm140.4-251.2c-3.529,0-5.957.32-8.2-.057-6.315-1.06-12.478-2.866-18.848-3.52-7.372-.761-10.965-2.439-12.505-8.143-1.684-6.222-3.494-12.48-4.085-18.8-.251-2.667,2.114-5.668,3.968-8.207,1.12-1.529,3.619-2.389,5.357-3.669,4.094-3.022,5.984-7.325,3.135-10.582-3.341-3.812-1.953-6.13,1.039-9.359,4.784-5.156,6.6-10.418,1.711-16.9-5.034-6.671-1.147-13.725,2.643-20.189.555-.953,2.867-1.266,4.631-1.984a78.681,78.681,0,0,0,6.692,6.073c7.928,5.739,13.482,14.038,26.157,14.82-.331,2.852-.439,5.206-.9,7.51-1.4,6.891-3.458,13.441-12.541,16.868-1.586.6-2.472,2.539-3.458,3.954-4.3,6.151-3.153,12.409,1,18.034,3.386,4.58,4.4,8.747.806,13.22-3.655,4.551-2.66,8.953-.143,13.483C411.4,312,412.227,314.008,413.893,317.521Zm460.6,751.867c-5.169,6.244-11.627,10.4-18.588,13.91q-24.858,12.513-50.156,24.442c-8.922,4.238-18.122,8.128-27.331,11.954-3.565,1.486-7.525,2.375-11.3,3.534a19.135,19.135,0,0,1,7.345-6.123c12.837-6.4,25.781-12.651,38.68-18.973a24.319,24.319,0,0,0,2.875-1.685c9.271-6.3,18.346-12.8,27.877-18.838,4.855-3.072,8.77-8.05,15.381-6.7.86-1.934.985-3.847,2.266-4.836,7.444-5.8,15.435-11.165,22.726-17.082,12.273-9.963,23.945-20.4,36.262-30.33,17.289-13.938,32.5-28.929,41.386-47.454a18.149,18.149,0,0,1,3.807-5.6,38.428,38.428,0,0,1,7.865-5.582c4.112-2.2,6.539.832,9.191,2.5,2.437,1.543,4.282,3.428,2.356,6.116-6.62,9.231-12.281,19.016-20.084,27.571-13.052,14.329-26.094,28.673-42.685,40.855-16.716,12.274-33.225,24.413-54.858,31.07-.7.213-1.218.811-3.458,2.382C868.509,1070.035,870.99,1069.764,874.493,1069.388Zm-615.769,49.467c1.012-4.807,4.855-6.436,8.6-7.751,6.244-2.2,12.667-4.1,19.116-5.9,25.736-7.19,52.279-12.338,76.492-23.162,14.8-6.614,29.534-12.907,42.38-21.825,4.5-3.122,9.28-6.173,15.479-7.46a17.38,17.38,0,0,1-3.968,5.362c-5.6,5.163-11.412,10.183-16.984,15.368-16.895,15.738-38.376,26-62.8,32.392-16.375,4.288-33.01,8.057-49.761,11.328C278.261,1118.975,268.828,1120.376,258.724,1118.854ZM-497.3,575.508l-1.182,1.6c-7.874.96-15.721,2.475-23.631,2.773-15.972.6-31.989.562-47.979.754-7.65.092-11.206-1.956-11.744-8.007-.555-6.329-.063-12.722.2-19.087.125-3.165,2.445-4.694,6.512-4.224a45.19,45.19,0,0,1,6.109.924c11.538,2.98,23.255,5.611,34.479,9.2s21.992,8.086,32.831,12.381C-499.906,572.535-498.751,574.256-497.3,575.508ZM271.023,244.465c1.595,1.906,2.329,2.4,2.445,2.98,2.876,13.4,10.669,23.126,29.23,25.025a8.249,8.249,0,0,1,3.61,1.877c7.713,5.646,8.42,5.817,16.115.519a22.034,22.034,0,0,1,14.619-4.125c4.112.313,8.152,1.2,11.627,1.735,3.368,3.7,6.351,6.983,10.337,11.371-4.38,0-7.435.512-10.042-.107-5.2-1.245-9.3.4-13.518,2.219-2.6,1.124-5.043,2.624-7.811,3.307a8.994,8.994,0,0,0-6.88,5.817c-1.971,4.551-4.739,8.882-7.328,13.6-5.348-1.358-10-2.247-14.315-3.719-4.076-1.387-8.089-3.122-8.492-7.431-.1-1.088-1.29-2.084-1.8-3.172q-4.918-10.539-9.746-21.1c-1.693-3.726-2.831-7.645-4.972-11.193C270.969,256.882,269,251.719,271.023,244.465ZM-48.793,455.823c.663-.114,1.317-.235,1.98-.348,3.108,6.528,6.548,12.971,9.262,19.606,6.154,15.034,12.756,30,17.629,45.314,3.368,10.582,3.547,21.569-7.229,30.487a3.88,3.88,0,0,0-.976,2.382c-.851,5.291-5.267,7.979-11.986,10.4-.4-2.816-.923-5.049-1.021-7.3-.69-15.766-1.057-31.539-2.025-47.291-.636-10.354-2.1-20.673-3.207-31.006C-47.154,470.65-47.978,463.24-48.793,455.823Zm461.11,186.994c-4.542-4.544-8.752-8.719-12.891-12.929-1.057-1.074-2.768-2.29-2.732-3.406.17-5.149-4.022-7.424-8.806-9.629a20.036,20.036,0,0,1-5.375-3.669c-2.293-2.212-5.061-2.951-8.564-3.108a49.716,49.716,0,0,1-17.038-3.485c2.965-6.5,6.262-11.506,15.363-12.978,6.916-1.117,12.263.789,17.477,3.534,5.294,2.781,11.735,4.935,11.162,11.549-.152,1.742,1.254,3.62,2.177,5.355,2.634,4.957,11.493,9.657,17.853,8.5a16.9,16.9,0,0,1,13.858,3.044,19.547,19.547,0,0,0,14.646,3.7c3.046-.391,6.745-.441,8.062,3.15-4.094,4.665-9.254,6.848-16.733,5.312-2.338-.484-5.16.036-7.614.533C426,639.717,418.91,641.367,412.317,642.817ZM758.926,691.3c.269-.057.546-.121.815-.178.081-1.181.09-2.368.242-3.542.555-4.452,5.858-9.053,10.561-9.209,4.345-.149,7.3,3,8.206,8.74.036.235.063.469.09.7.788,6.827,1.353,13.675,2.454,20.474.609,3.769-.869,6.557-4.6,8.576a63.938,63.938,0,0,1-8.528,3.755c-6.172,2.24-12.89,3.741-18.543,6.6-6.889,3.485-14.127,6.834-18.543,12.872-2.652,3.62-6.53,6.678-9.943,9.942-4.255,4.075-8.752,4.132-13.768.7-4.452-3.051-5.635-7.19-6.62-11.343-1.245-5.22,3.915-8.292,10.445-6.791a67.635,67.635,0,0,0,12.926,1.941c6.745.213,8-.839,9.979-6.1.591-1.572.546-3.876,1.872-4.58,6.36-3.406,8.958-9.984,16.805-12.16,2.392-.661,4.094-2.745,6.378-3.819,4.192-1.977,4.47-4.544,2.9-7.872A89.809,89.809,0,0,1,758.926,691.3ZM-33.224,962.653c-.09-.412-.188-.832-.278-1.245a75.848,75.848,0,0,1,8.1-1.821c8.815-1.052,17.71-1.693,26.5-2.88,10.248-1.38,20.684-2.46,30.538-4.942,14.342-3.605,28.943-5.447,43.777-6.6,12.425-.967,24.8-1.671,37.372-1.06,10.66.519,21.436-.491,32.168-.7,1.747-.036,3.52.569,7.1,1.195-3.305,1.373-4.739,2.226-6.351,2.6-10.588,2.432-21.15,4.964-31.845,7.076-16.9,3.335-34.148,3.2-51.481,3.378-19.331.192-38.636,1.956-57.949,3.129-10.642.647-21.266,1.536-31.908,2.219A44.738,44.738,0,0,1-33.224,962.653ZM-533.391,504.038c-.645.128-1.29.256-1.944.391-1.5-3.52-3.664-6.962-4.362-10.582-2.069-10.7-4.121-21.448-5.088-32.236-.672-7.481.179-15.083.833-22.6.591-6.791,2.007-13.533,2.741-20.317.869-8.043,1.4-16.107,2.078-24.157,1.747,2.091,1.514,4.487,2.795,6.151,6.468,8.448,7.122,17.85,7.865,27.286.125,1.621.752,3.214,1.012,4.836.6,3.705,1.648,7.431,1.577,11.136-.242,11.307-1.469,22.621-1.263,33.914C-527,487.071-530.417,495.462-533.391,504.038ZM270.226,208.915c-5.16-4.551-11.394-8.313-11.744-15.233-.09-1.7-1.729-3.541-3.207-4.964a60.66,60.66,0,0,1-11.941-16.271c-4.524-8.768-12.9-11.855-24.885-11.208a31.067,31.067,0,0,1-9.576-1.01c-4.99-1.372-9.728-3.314-16.232-5.6,6.548-.882,11.842-2.809,16.187-1.9,6.2,1.3,11.9.412,17.558-.313,13.777-1.764,24.554,1.664,31.281,11.129,3.18,4.473,5.661,9.252,8.788,13.746a50.778,50.778,0,0,0,6.19,6.806c1.675,1.643,3.879,2.958,5.473,4.644,4.425,4.679,2.831,9.785,1.55,14.934C278.6,208.012,274.131,207.856,270.226,208.915ZM176.472,541.992c4.622.917,8.026,1.465,11.341,2.276,9.056,2.212,18.023,4.672,27.125,6.77,7.641,1.757,15.479,2.98,23.12,4.743,5.24,1.209,8.008.988,10.409-2.845,7.48-11.926,24.957-9.508,33.538.235-2.078,1.949-3.942,4.125-6.36,5.8-1.362.946-3.968,1.842-5.428,1.429-11.412-3.179-22.35-.064-33.35,1.372-7.274.946-14.351,2.859-21.624,3.812-7.883,1.031-16.053.818-23.309,4.132-.645.292-1.675.036-3.288.036-.654-4.679-.349-9.522-2.186-13.782C184.534,551.486,180.566,547.546,176.472,541.992ZM430.053,651.564c3.529-.256,6.181-.64,8.815-.6,8.788.121,15.184-3.428,20.827-8.235.4-.341.663-.8,1.084-1.131,4.165-3.221,8.349-5.618,14.942-3.833,5.285,1.429,11.063,1.735,16.626,2.51,7.229,1,14.055,1.223,19.985-3.442,1.8-1.422,5.339-1.813,8.143-1.977,3.279-.192,6.754.213,7.31,3.762.511,3.243-2.446,3.847-5.375,4.608-7.059,1.842-13.9,3.812-20.066,7.481-4.676,2.788-10.481,3.8-16.931,3.221-6.047-.548-12.371.256-18.48.989-7.955.953-15.757,2.7-23.712,3.591C435.67,659.373,434.067,658.32,430.053,651.564Zm223.689,26.767c-5.8,4.388-8.313,8.747-8.618,14.344-.278,5.156-3.646,9.558-11.278,10.063-9.6.633-19.233,1.074-28.854,1.572a6.352,6.352,0,0,1-1.738-.27c-4.712-1.1-5.832-2.4-4.712-6.151,1.362-4.544,3.5-8.847,1.72-13.81-1.075-3,2.41-5.1,6.038-3.485,8.591,3.812,17.154,3.712,26.112,1.529a9.217,9.217,0,0,1,2.661-.142c6.047.384,11.063-.761,13.132-6.2C650.1,676.646,651.315,677.208,653.742,678.332ZM573.076,928.425c3.709-4.324,4.9-4.694,26.892-6.18,9.737-.654,19.528-.761,29.3-.967,9.6-.2,19.188-1.65,29.579-1.188-1.9,8.37-9.773,12.566-14.306,18.39a2.22,2.22,0,0,1-1.586.519c-8.483-.8-17.1-1.159-25.378-2.681-6.136-1.131-11.86-5.49-17.7-5.4C590.687,931.057,582.6,925.73,573.076,928.425Zm134.692-229.72c-12.38,2.041-22.8,3.755-34.1,5.618,6.047-4.167,6.468-4.267,5.455-7.168-4.049-11.606-7.435-23.453-17.844-32.926a11.993,11.993,0,0,1-3.726-5.518c-1.048-4.43-3.037-8.007-8.582-9.949a11.568,11.568,0,0,1-4-2.788c-3.7-3.605-2.768-9.949,2.105-12.786.385,1.237,1.227,2.411.967,3.406-.976,3.741,1.308,5.81,5.2,7.268,17.531,6.6,26.748,17.885,29.7,32.841.977,4.935,2.687,9.764,8.259,12.9C696,692.313,700.879,694.93,707.767,698.706Zm-166.3-18.667c3.243-5.241,6.916-9.643,8.707-14.486,1.836-4.964,1.845-10.354,2.7-15.851a32.486,32.486,0,0,1,17.038,7.823c4.515,3.79,9.1,7.282,15.452,9.245,3.431,1.06,6.647,3,7.829,7.4C575.674,676.156,558.627,678.09,541.463,680.038ZM-564.305,453.683c-2.195,18.945-3.09,37.029-6.611,54.936-.842,4.281-2.893,8.413-4.3,12.374-4.228.192-5.33-1.429-5.554-3.449-.287-2.589-.3-5.191-.322-7.794-.161-13,.009-26.013-.511-39.006C-582.024,460.41-579.677,457.473-564.305,453.683Zm985.5-137.47L419.161,316c3.6-3.591,1.577-6.6-.161-9.871a9.385,9.385,0,0,1-.6-6.614c2.025-7.239,3.3-14.3-.77-21.448-1.344-2.361-1.371-5.2-2.311-9.124,10.624,3.129,13.007-2.183,15.479-7.133,2.589-5.2,4.837-10.5,7.265-15.844,6.647,3.577,8.859,7.51,3.332,12.637a6.372,6.372,0,0,0-1.021,1.856c-1.819.213-3.485.405-4.918.576-1.765,3.819-3.216,7.4-5.07,10.845-3.153,5.853-2.974,10.76,4.4,14.777,3.753,2.048,4.676,6.222,1.792,7.908-2.768,1.614-3,2.617-2.275,5.078.511,1.742-.43,4.231-1.81,5.767C429.05,309.193,425,312.628,421.194,316.212ZM-40.758,601.329c16.725-.6,32.544.327,45.82,9.43C-1,623.076-3.2,624.69-15.98,622.123a5.3,5.3,0,0,0-1.774-.043c-8.824,1.23-14.127-1.479-18.2-8.015C-38.384,610.169-42.075,606.99-40.758,601.329Zm839.449,329.82c-7.829,1.266-14.646,2.6-21.553,3.421a79.184,79.184,0,0,1-15.712.668c-4.622-.391-9.128-1.991-13.553-3.328-1.415-.427-3.431-1.8-3.359-2.638a5.06,5.06,0,0,1,2.8-3.819c5.894-2.1,11.878-4.3,18.131-5.4,5.7-1.01,12.093-1.685,17.62-.633A21.041,21.041,0,0,1,798.691,931.149Zm-920.2-319.387c5.446-4.516,12.792-5.682,20.137-6.109,9.684-.562,18.471-3.2,27.295-5.995,1.774-.562,3.6-1,5.85-1.607-1.63,6.116-6.262,9.366-11.726,12.388a97.52,97.52,0,0,1-22.816,8.79C-114.124,622.208-117.895,621.305-121.505,611.762Zm152.9-452.6c-4.049,0-7.5-.448-10.678.092a20.178,20.178,0,0,0-14.369,9.664,56.821,56.821,0,0,1-9.988,12.36c-8.268,7.268-20.281,6.222-31.111,7.616-.287.036-.717-.661-1.863-1.778,2.508-1.678,4.963-4.679,7.632-4.8,4.291-.192,6.907-2.5,10.293-3.236,7.82-1.707,11.753-5.753,14.584-11.257,3.413-6.628,8.618-11.563,18.767-11.485,1.98.014,3.977-.889,5.957-1.372C25.817,153.7,28.7,155.829,31.4,159.157Zm430.967,74.591c8.824,4.608,14.2,9.017,15.309,17.565,1.46,11.186.6,22.323,1.514,33.452.072.825-.654,1.685-1.173,2.916-1.657-.348-3.225-.356-4.273-.946-5.85-3.314-5.384-8.235-4.058-12.822,2.428-8.413.967-15.873-6.745-22.1C468.492,245.809,460.546,240.518,462.365,233.748ZM753.686,704.089c-17.889,2.176-27.447,10.895-31.281,24.058-5.061.725-8.564-.384-10.329-4.053-2.114-4.409-1.165-8.541,2.938-10.873A109.175,109.175,0,0,1,725.2,708.7c1.944-7.047,3.556-8.192,12.774-9.11a60.876,60.876,0,0,0,6.154-.875C749.1,697.689,752.172,699.04,753.686,704.089Zm-458.7,220.226c.027-.533.045-1.067.072-1.6,10.087-2.8,20.155-5.639,30.278-8.363a8.3,8.3,0,0,1,3.422.292c4.6.946,9.2,1.863,13.733,2.987,2.347.583,4.533,1.557,7.507,2.617-10.544,7.389-23.022,5.732-33.968,8.15C308.279,930.1,302.43,924.543,294.986,924.315ZM541.58,630.479c-5.33-1.152-9.818-2.56-14.458-3-4.685-.448-6.933-2.318-7.856-5.639-.564-2.02-.923-4.082-1.379-6.13,7.095-4.708,15.318-5.682,23.649-6.208,3.431-.213,6.226,1.308,5.76,4.153C546.363,619.364,544.93,625.053,541.58,630.479ZM449,265.344c4.1-.42,8.026-.825,13.222-1.358.143,11.122-3.485,21.932,6.118,31.148-3.081,1.287-5.088,2.119-7.148,2.973-1.908-3.812-2.625-8-5.572-10.589C448.4,281.16,446.025,274.262,449,265.344Zm83.7,408.5c-6.844-3.826-13.562-7.588-20.478-11.449,3.225-5.554,10.544-5.931,15.273-8.7C544.034,656.03,544.16,668.226,532.7,673.844ZM483.174,810.9c-.645-.1-1.3-.206-1.944-.306.833-4.3,1.514-8.619,2.553-12.879.5-2.062,1.747-4,2.562-6.016,4.246-10.56,8.376-21.142,12.738-31.674,1.657-4,4.73-7.3,10.221-10.112-5.133,10.646-10.248,20.388-14.512,30.359C490.475,790.365,487.008,800.683,483.174,810.9ZM-262.431,261.867c-.833-.4-1.675-.8-2.508-1.195,1.191-2.013,1.845-4.43,3.673-5.966,10.965-9.209,22.162-18.241,33.4-27.244.914-.732,2.723-.775,4.112-1.131.358.412.717.825,1.075,1.23Q-242.549,244.725-262.431,261.867ZM698.075,710.041c0,5.646.161,10.781-.125,15.9a4.274,4.274,0,0,1-2.759,3.051,5.706,5.706,0,0,1-4.327-1.373c-3.458-4.039-6.539-8.278-9.719-12.4C690.219,709.608,690.38,709.558,698.075,710.041ZM567.146,926.811c-5.787,5.376-10.346,6.386-16.769,4.644-1.362-.37-3.1-1.038-4.2-.676-8.671,2.837-16.062-.96-23.9-2.653C537.208,927.174,552.06,925.695,567.146,926.811ZM671.362,693.017c-.564.363-1.129.733-1.693,1.1-1.72,2.5-3.431,4.992-5.133,7.46-10.651-3.307-10.615-3.293-6.8-11.506.95-2.041,1.559-4.189,2.938-7.979C665.065,686.574,668.209,689.8,671.362,693.017Zm-230.9-463.123c8.17,1.522,11.045,6.365,13.419,11.435,1.1,2.354,1.89,4.957-1.774,6.635-2.9-1.913-5.5-3.762-8.268-5.433C438.447,239.274,437.569,236.614,440.463,229.894Zm-504.278-30.65c-10.445-.441-19.17-.768-27.465-3.456a7.477,7.477,0,0,1-5.455-5.447C-86.22,194.771-72.819,188.449-63.816,199.244Zm278.691,35.713c-2.508,6.514-9.442,7.254-16.447,7.915C202.961,239.1,207.726,235.611,214.875,234.957ZM466.987,312.45H455.082c3.9-2.973,4.354-8.313,11.905-7.673Zm216.9,613c3.547,1.472,5.76,2.4,9.4,3.911-3.485,1.792-5.876,3.015-9.4,4.829ZM-581.468,649.566l2.929.32c-3.2,3.264,1.541,7.687-3.252,11.506,0-2.61-.045-4.416.009-6.222C-581.728,653.307-581.576,651.436-581.468,649.566ZM-565.156,546.6c-7.39.213-7.39.213-12-2.909Q-571.167,545.153-565.156,546.6ZM395.933,902.433c.278-.484.555-.974.824-1.458,1.066.519,2.132,1.031,3.2,1.55-.152.249-.314.491-.466.74C398.306,902.988,397.124,902.711,395.933,902.433Zm-446.724,62.4.627.711a4.615,4.615,0,0,1-1.469.718,22.458,22.458,0,0,1-2.929-.085C-53.3,965.732-52.045,965.284-50.791,964.836ZM59.642,1071.414c.063.306.134.6.2.91-1.254.213-2.5.434-3.753.647l-.242-1.024C57.116,1071.777,58.379,1071.6,59.642,1071.414Z" transform="translate(581.648 171.658)" fill="#2c6a91"/>
        <path id="Path_811" data-name="Path 811" d="M1654.87,693.32v4.061c.206.021.421.043.627.071.224-1.287.457-2.567.681-3.854C1655.748,693.5,1655.309,693.412,1654.87,693.32Z" transform="translate(-1649.925 -120.426)" fill="#2c6a91"/>
        <path id="Path_812" data-name="Path 812" d="M850.48,681.6c-3.323-4.857-6.575-9.736-9.97-14.557C825.066,645.1,813.4,622,806.147,597.485c-3.959-13.369-3.44-26.661-.52-40.051,1.362-6.222,2.472-12.488,3.52-18.746.17-1.017-.591-2.126-1.281-4.338a49.21,49.21,0,0,0-3.574,3.918c-12.487,17.729-13.536,36.268-6.477,55.476,6.4,17.444,11.914,35.194,22.466,51.408,7.892,12.132,17.325,23.638,26.166,35.379.6.789,2.051,1.173,3.1,1.749C849.862,682.054,850.166,681.826,850.48,681.6Z" transform="translate(-72.572 -74.506)" fill="#2c6a91"/>
        <path id="Path_813" data-name="Path 813" d="M1387.192,1519.055c1.711-.334,3.422-.661,5.133-1-.089-.37-.179-.74-.278-1.109-1.666.235-3.341.477-5.008.711C1387.094,1518.13,1387.148,1518.593,1387.192,1519.055Z" transform="translate(-1146.152 -358.339)" fill="#2c6a91"/>
      </g>
    </g>
  </g>
</svg>
